<svg version="1.1" viewBox="0.0 0.0 624.0 192.0" fill="none" stroke="none" stroke-linecap="square" stroke-miterlimit="10" xmlns:xlink="http://www.w3.org/1999/xlink" xmlns="http://www.w3.org/2000/svg"><clipPath id="p.0"><path d="m0 0l624.0 0l0 192.0l-624.0 0l0 -192.0z" clip-rule="nonzero"/></clipPath><g clip-path="url(#p.0)"><path fill="#000000" fill-opacity="0.0" d="m0 0l624.0 0l0 192.0l-624.0 0z" fill-rule="evenodd"/><path fill="#000000" fill-opacity="0.0" d="m81.125984 50.27559l681.22833 0l0 73.732285l-681.22833 0z" fill-rule="evenodd"/><path fill="#616161" d="m100.20411 64.32059l-8.40625 12.875l-1.484375 0l8.375 -12.875l1.515625 0zm-4.859375 2.546875q0 0.59375 -0.171875 1.109375q-0.171875 0.5 -0.5 0.875q-0.3125 0.359375 -0.78125 0.578125q-0.453125 0.21875 -1.03125 0.21875q-0.546875 0 -1.0 -0.171875q-0.4375 -0.171875 -0.75 -0.515625q-0.3125 -0.34375 -0.484375 -0.84375q-0.15625 -0.5 -0.15625 -1.15625q0 -0.59375 0.171875 -1.09375q0.171875 -0.5 0.484375 -0.875q0.328125 -0.375 0.78125 -0.578125q0.46875 -0.21875 1.03125 -0.21875q0.5625 0 1.0 0.171875q0.4375 0.171875 0.75 0.515625q0.3125 0.328125 0.484375 0.828125q0.171875 0.5 0.171875 1.15625zm-1.34375 0.046875q0 -0.796875 -0.296875 -1.171875q-0.28125 -0.390625 -0.796875 -0.390625q-0.265625 0 -0.46875 0.125q-0.203125 0.109375 -0.34375 0.328125q-0.140625 0.203125 -0.21875 0.5q-0.078125 0.28125 -0.078125 0.609375q0 0.8125 0.296875 1.203125q0.296875 0.375 0.8125 0.375q0.265625 0 0.46875 -0.125q0.203125 -0.125 0.34375 -0.328125q0.140625 -0.203125 0.203125 -0.484375q0.078125 -0.296875 0.078125 -0.640625zm6.046875 7.65625q0 0.578125 -0.171875 1.09375q-0.171875 0.5 -0.5 0.875q-0.328125 0.359375 -0.796875 0.578125q-0.453125 0.203125 -1.015625 0.203125q-0.546875 0 -1.0 -0.171875q-0.4375 -0.171875 -0.75 -0.5q-0.3125 -0.34375 -0.484375 -0.84375q-0.171875 -0.515625 -0.171875 -1.171875q0 -0.578125 0.171875 -1.078125q0.1875 -0.515625 0.5 -0.890625q0.328125 -0.375 0.78125 -0.578125q0.46875 -0.203125 1.03125 -0.203125q0.5625 0 1.0 0.171875q0.453125 0.171875 0.765625 0.515625q0.3125 0.328125 0.46875 0.84375q0.171875 0.5 0.171875 1.15625zm-1.328125 0.03125q0 -0.796875 -0.296875 -1.171875q-0.296875 -0.390625 -0.8125 -0.390625q-0.265625 0 -0.46875 0.125q-0.203125 0.109375 -0.359375 0.328125q-0.140625 0.203125 -0.21875 0.484375q-0.0625 0.28125 -0.0625 0.625q0 0.796875 0.28125 1.1875q0.296875 0.375 0.828125 0.375q0.265625 0 0.46875 -0.109375q0.203125 -0.125 0.34375 -0.328125q0.140625 -0.21875 0.21875 -0.5q0.078125 -0.296875 0.078125 -0.625z" fill-rule="nonzero"/><path fill="#c53929" d="m102.2114 68.05496l1.453125 0l0.046875 1.6875q0.8125 -0.984375 1.59375 -1.421875q0.796875 -0.4375 1.59375 -0.4375q1.421875 0 2.15625 0.921875q0.734375 0.921875 0.671875 2.734375l-1.59375 0q0.015625 -1.203125 -0.359375 -1.734375q-0.375 -0.546875 -1.109375 -0.546875q-0.3125 0 -0.640625 0.109375q-0.328125 0.109375 -0.671875 0.359375q-0.328125 0.25 -0.71875 0.640625q-0.375 0.390625 -0.8125 0.953125l0 5.875l-1.609375 0l0 -9.140625z" fill-rule="nonzero"/><path fill="#616161" d="m129.94475 71.30496l-7.8281326 0l0 -1.328125l7.8281326 0l0 1.328125zm0 3.171875l-7.8281326 0l0 -1.328125l7.8281326 0l0 1.328125z" fill-rule="nonzero"/><path fill="#000000" d="m150.24059 77.07059q-0.53125 0.140625 -1.109375 0.1875q-0.578125 0.0625 -1.171875 0.0625q-1.71875 0 -2.5625 -0.78125q-0.84375 -0.78125 -0.84375 -2.390625l0 -4.765625l-2.5625 0l0 -1.328125l2.5625 0l0 -2.515625l1.578125 -0.40625l0 2.921875l4.109375 0l0 1.328125l-4.109375 0l0 4.640625q0 0.984375 0.515625 1.46875q0.53125 0.484375 1.546875 0.484375q0.4375 0 0.953125 -0.0625q0.53125 -0.0625 1.09375 -0.21875l0 1.375zm10.616669 -4.9375q0 0.34375 -0.015625 0.578125q0 0.21875 -0.03125 0.421875l-6.421875 0q0 1.40625 0.78125 2.15625q0.796875 0.75 2.265625 0.75q0.40625 0 0.796875 -0.03125q0.40625 -0.03125 0.78125 -0.078125q0.375 -0.0625 0.71875 -0.125q0.34375 -0.078125 0.625 -0.15625l0 1.296875q-0.640625 0.1875 -1.46875 0.296875q-0.8125 0.109375 -1.6875 0.109375q-1.171875 0 -2.015625 -0.3125q-0.84375 -0.3125 -1.390625 -0.921875q-0.546875 -0.609375 -0.8125 -1.484375q-0.25 -0.875 -0.25 -2.0q0 -0.953125 0.28125 -1.8125q0.28125 -0.859375 0.8125 -1.515625q0.53125 -0.65625 1.296875 -1.03125q0.78125 -0.390625 1.765625 -0.390625q0.953125 0 1.6875 0.3125q0.75 0.296875 1.25 0.84375q0.5 0.546875 0.765625 1.34375q0.265625 0.78125 0.265625 1.75zm-1.65625 -0.21875q0.03125 -0.609375 -0.125 -1.109375q-0.140625 -0.515625 -0.453125 -0.875q-0.296875 -0.375 -0.75 -0.578125q-0.453125 -0.203125 -1.0625 -0.203125q-0.515625 0 -0.953125 0.203125q-0.421875 0.203125 -0.734375 0.5625q-0.296875 0.359375 -0.5 0.875q-0.1875 0.515625 -0.234375 1.125l4.8125 0zm4.1791687 -3.859375l1.421875 0l0.0625 1.46875q0.390625 -0.46875 0.765625 -0.78125q0.375 -0.3125 0.734375 -0.5q0.359375 -0.203125 0.734375 -0.28125q0.375 -0.078125 0.78125 -0.078125q1.40625 0 2.125 0.84375q0.734375 0.828125 0.734375 2.5l0 5.96875l-1.59375 0l0 -5.84375q0 -1.078125 -0.40625 -1.578125q-0.390625 -0.515625 -1.1875 -0.515625q-0.28125 0 -0.5625 0.09375q-0.28125 0.078125 -0.578125 0.296875q-0.296875 0.203125 -0.65625 0.578125q-0.34375 0.359375 -0.78125 0.90625l0 6.0625l-1.59375 0l0 -9.140625zm17.507294 6.640625q0 0.484375 -0.171875 0.875q-0.15625 0.375 -0.4375 0.671875q-0.28125 0.296875 -0.65625 0.515625q-0.375 0.203125 -0.796875 0.34375q-0.421875 0.125 -0.875 0.1875q-0.453125 0.0625 -0.875 0.0625q-0.921875 0 -1.703125 -0.078125q-0.78125 -0.078125 -1.53125 -0.265625l0 -1.453125q0.796875 0.234375 1.59375 0.359375q0.796875 0.109375 1.578125 0.109375q1.140625 0 1.6875 -0.3125q0.546875 -0.3125 0.546875 -0.890625q0 -0.234375 -0.09375 -0.421875q-0.078125 -0.203125 -0.3125 -0.375q-0.21875 -0.1875 -0.703125 -0.375q-0.484375 -0.203125 -1.3125 -0.4375q-0.609375 -0.1875 -1.140625 -0.421875q-0.515625 -0.234375 -0.90625 -0.546875q-0.375 -0.328125 -0.59375 -0.75q-0.21875 -0.421875 -0.21875 -1.015625q0 -0.375 0.171875 -0.828125q0.171875 -0.453125 0.59375 -0.84375q0.4375 -0.40625 1.171875 -0.65625q0.734375 -0.265625 1.8125 -0.265625q0.546875 0 1.203125 0.0625q0.65625 0.0625 1.359375 0.203125l0 1.40625q-0.75 -0.171875 -1.421875 -0.25q-0.65625 -0.09375 -1.15625 -0.09375q-0.59375 0 -1.0 0.09375q-0.390625 0.078125 -0.65625 0.25q-0.25 0.15625 -0.359375 0.375q-0.109375 0.203125 -0.109375 0.453125q0 0.25 0.09375 0.453125q0.109375 0.1875 0.359375 0.375q0.265625 0.1875 0.71875 0.375q0.46875 0.1875 1.21875 0.40625q0.8125 0.234375 1.359375 0.5q0.5625 0.25 0.90625 0.578125q0.359375 0.3125 0.5 0.71875q0.15625 0.40625 0.15625 0.90625zm10.976044 -2.140625q0 1.0625 -0.3125 1.953125q-0.296875 0.890625 -0.859375 1.53125q-0.5625 0.625 -1.375 0.96875q-0.8125 0.34375 -1.84375 0.34375q-0.984375 0 -1.765625 -0.296875q-0.765625 -0.3125 -1.3125 -0.890625q-0.546875 -0.59375 -0.828125 -1.46875q-0.28125 -0.875 -0.28125 -2.015625q0 -1.0625 0.296875 -1.9375q0.296875 -0.890625 0.859375 -1.515625q0.5625 -0.640625 1.375 -0.984375q0.8125 -0.359375 1.84375 -0.359375q0.984375 0 1.765625 0.3125q0.78125 0.296875 1.3125 0.890625q0.546875 0.578125 0.828125 1.453125q0.296875 0.875 0.296875 2.015625zm-1.625 0.0625q0 -0.84375 -0.1875 -1.46875q-0.1875 -0.640625 -0.53125 -1.0625q-0.34375 -0.421875 -0.84375 -0.640625q-0.5 -0.21875 -1.109375 -0.21875q-0.703125 0 -1.21875 0.28125q-0.5 0.28125 -0.828125 0.75q-0.3125 0.453125 -0.46875 1.078125q-0.15625 0.609375 -0.15625 1.28125q0 0.859375 0.1875 1.5q0.1875 0.625 0.53125 1.046875q0.359375 0.421875 0.84375 0.640625q0.5 0.21875 1.109375 0.21875q0.71875 0 1.21875 -0.28125q0.5 -0.28125 0.828125 -0.734375q0.328125 -0.46875 0.46875 -1.078125q0.15625 -0.625 0.15625 -1.3125zm4.2885437 -4.5625l1.453125 0l0.046875 1.6875q0.8125 -0.984375 1.59375 -1.421875q0.796875 -0.4375 1.59375 -0.4375q1.421875 0 2.15625 0.921875q0.734375 0.921875 0.671875 2.734375l-1.59375 0q0.015625 -1.203125 -0.359375 -1.734375q-0.375 -0.546875 -1.109375 -0.546875q-0.3125 0 -0.640625 0.109375q-0.328125 0.109375 -0.671875 0.359375q-0.328125 0.25 -0.71875 0.640625q-0.375 0.390625 -0.8125 0.953125l0 5.875l-1.609375 0l0 -9.140625z" fill-rule="nonzero"/><path fill="#616161" d="m208.01872 74.32059q0.296875 0 0.578125 0.125q0.28125 0.125 0.484375 0.328125q0.203125 0.203125 0.3125 0.484375q0.125 0.28125 0.125 0.59375q0 0.3125 -0.125 0.59375q-0.109375 0.265625 -0.3125 0.46875q-0.203125 0.203125 -0.484375 0.3125q-0.28125 0.125 -0.578125 0.125q-0.328125 0 -0.609375 -0.125q-0.265625 -0.109375 -0.46875 -0.3125q-0.203125 -0.203125 -0.328125 -0.46875q-0.109375 -0.28125 -0.109375 -0.59375q0 -0.3125 0.109375 -0.59375q0.125 -0.28125 0.328125 -0.484375q0.203125 -0.203125 0.46875 -0.328125q0.28125 -0.125 0.609375 -0.125z" fill-rule="nonzero"/><path fill="#000000" d="m217.79164 69.36746l-2.703125 0l0 -1.3125l4.296875 0l0 7.8125l2.734375 0l0 1.328125l-7.34375 0l0 -1.328125l3.015625 0l0 -6.5zm0.546875 -5.15625q0.265625 0 0.484375 0.09375q0.234375 0.09375 0.40625 0.28125q0.171875 0.171875 0.265625 0.390625q0.09375 0.21875 0.09375 0.484375q0 0.25 -0.09375 0.484375q-0.09375 0.234375 -0.265625 0.40625q-0.171875 0.171875 -0.40625 0.265625q-0.21875 0.09375 -0.484375 0.09375q-0.265625 0 -0.5 -0.09375q-0.21875 -0.09375 -0.390625 -0.265625q-0.15625 -0.171875 -0.265625 -0.40625q-0.09375 -0.234375 -0.09375 -0.484375q0 -0.265625 0.09375 -0.484375q0.109375 -0.21875 0.265625 -0.390625q0.171875 -0.1875 0.390625 -0.28125q0.234375 -0.09375 0.5 -0.09375zm6.5854187 3.84375l1.421875 0l0.0625 1.46875q0.390625 -0.46875 0.765625 -0.78125q0.375 -0.3125 0.734375 -0.5q0.359375 -0.203125 0.734375 -0.28125q0.375 -0.078125 0.78125 -0.078125q1.40625 0 2.125 0.84375q0.734375 0.828125 0.734375 2.5l0 5.96875l-1.59375 0l0 -5.84375q0 -1.078125 -0.40625 -1.578125q-0.390625 -0.515625 -1.1875 -0.515625q-0.28125 0 -0.5625 0.09375q-0.28125 0.078125 -0.578125 0.296875q-0.296875 0.203125 -0.65625 0.578125q-0.34375 0.359375 -0.78125 0.90625l0 6.0625l-1.59375 0l0 -9.140625zm17.507294 6.640625q0 0.484375 -0.171875 0.875q-0.15625 0.375 -0.4375 0.671875q-0.28125 0.296875 -0.65625 0.515625q-0.375 0.203125 -0.796875 0.34375q-0.421875 0.125 -0.875 0.1875q-0.453125 0.0625 -0.875 0.0625q-0.921875 0 -1.703125 -0.078125q-0.78125 -0.078125 -1.53125 -0.265625l0 -1.453125q0.796875 0.234375 1.59375 0.359375q0.796875 0.109375 1.578125 0.109375q1.140625 0 1.6875 -0.3125q0.546875 -0.3125 0.546875 -0.890625q0 -0.234375 -0.09375 -0.421875q-0.078125 -0.203125 -0.3125 -0.375q-0.21875 -0.1875 -0.703125 -0.375q-0.484375 -0.203125 -1.3125 -0.4375q-0.609375 -0.1875 -1.140625 -0.421875q-0.515625 -0.234375 -0.90625 -0.546875q-0.375 -0.328125 -0.59375 -0.75q-0.21875 -0.421875 -0.21875 -1.015625q0 -0.375 0.171875 -0.828125q0.171875 -0.453125 0.59375 -0.84375q0.4375 -0.40625 1.171875 -0.65625q0.734375 -0.265625 1.8125 -0.265625q0.546875 0 1.203125 0.0625q0.65625 0.0625 1.359375 0.203125l0 1.40625q-0.75 -0.171875 -1.421875 -0.25q-0.65625 -0.09375 -1.15625 -0.09375q-0.59375 0 -1.0 0.09375q-0.390625 0.078125 -0.65625 0.25q-0.25 0.15625 -0.359375 0.375q-0.109375 0.203125 -0.109375 0.453125q0 0.25 0.09375 0.453125q0.109375 0.1875 0.359375 0.375q0.265625 0.1875 0.71875 0.375q0.46875 0.1875 1.21875 0.40625q0.8125 0.234375 1.359375 0.5q0.5625 0.25 0.90625 0.578125q0.359375 0.3125 0.5 0.71875q0.15625 0.40625 0.15625 0.90625zm10.741669 -2.5625q0 0.34375 -0.015625 0.578125q0 0.21875 -0.03125 0.421875l-6.421875 0q0 1.40625 0.78125 2.15625q0.796875 0.75 2.265625 0.75q0.40625 0 0.796875 -0.03125q0.40625 -0.03125 0.78125 -0.078125q0.375 -0.0625 0.71875 -0.125q0.34375 -0.078125 0.625 -0.15625l0 1.296875q-0.640625 0.1875 -1.46875 0.296875q-0.8125 0.109375 -1.6875 0.109375q-1.171875 0 -2.015625 -0.3125q-0.84375 -0.3125 -1.390625 -0.921875q-0.546875 -0.609375 -0.8125 -1.484375q-0.25 -0.875 -0.25 -2.0q0 -0.953125 0.28125 -1.8125q0.28125 -0.859375 0.8125 -1.515625q0.53125 -0.65625 1.296875 -1.03125q0.78125 -0.390625 1.765625 -0.390625q0.953125 0 1.6875 0.3125q0.75 0.296875 1.25 0.84375q0.5 0.546875 0.765625 1.34375q0.265625 0.78125 0.265625 1.75zm-1.65625 -0.21875q0.03125 -0.609375 -0.125 -1.109375q-0.140625 -0.515625 -0.453125 -0.875q-0.296875 -0.375 -0.75 -0.578125q-0.453125 -0.203125 -1.0625 -0.203125q-0.515625 0 -0.953125 0.203125q-0.421875 0.203125 -0.734375 0.5625q-0.296875 0.359375 -0.5 0.875q-0.1875 0.515625 -0.234375 1.125l4.8125 0zm4.5541534 -3.859375l1.453125 0l0.046875 1.6875q0.8125 -0.984375 1.59375 -1.421875q0.796875 -0.4375 1.59375 -0.4375q1.421875 0 2.15625 0.921875q0.734375 0.921875 0.671875 2.734375l-1.59375 0q0.015625 -1.203125 -0.359375 -1.734375q-0.375 -0.546875 -1.109375 -0.546875q-0.3125 0 -0.640625 0.109375q-0.328125 0.109375 -0.671875 0.359375q-0.328125 0.25 -0.71875 0.640625q-0.375 0.390625 -0.8125 0.953125l0 5.875l-1.609375 0l0 -9.140625zm17.257294 9.015625q-0.53125 0.140625 -1.109375 0.1875q-0.578125 0.0625 -1.171875 0.0625q-1.71875 0 -2.5625 -0.78125q-0.84375 -0.78125 -0.84375 -2.390625l0 -4.765625l-2.5625 0l0 -1.328125l2.5625 0l0 -2.515625l1.578125 -0.40625l0 2.921875l4.109375 0l0 1.328125l-4.109375 0l0 4.640625q0 0.984375 0.515625 1.46875q0.53125 0.484375 1.546875 0.484375q0.4375 0 0.953125 -0.0625q0.53125 -0.0625 1.09375 -0.21875l0 1.375z" fill-rule="nonzero"/><path fill="#616161" d="m295.09268 64.32059l-8.40625 12.875l-1.484375 0l8.375 -12.875l1.515625 0zm-4.859375 2.546875q0 0.59375 -0.171875 1.109375q-0.171875 0.5 -0.5 0.875q-0.3125 0.359375 -0.78125 0.578125q-0.453125 0.21875 -1.03125 0.21875q-0.546875 0 -1.0 -0.171875q-0.4375 -0.171875 -0.75 -0.515625q-0.3125 -0.34375 -0.484375 -0.84375q-0.15625 -0.5 -0.15625 -1.15625q0 -0.59375 0.171875 -1.09375q0.171875 -0.5 0.484375 -0.875q0.328125 -0.375 0.78125 -0.578125q0.46875 -0.21875 1.03125 -0.21875q0.5625 0 1.0 0.171875q0.4375 0.171875 0.75 0.515625q0.3125 0.328125 0.484375 0.828125q0.171875 0.5 0.171875 1.15625zm-1.34375 0.046875q0 -0.796875 -0.296875 -1.171875q-0.28125 -0.390625 -0.796875 -0.390625q-0.265625 0 -0.46875 0.125q-0.203125 0.109375 -0.34375 0.328125q-0.140625 0.203125 -0.21875 0.5q-0.078125 0.28125 -0.078125 0.609375q0 0.8125 0.296875 1.203125q0.296875 0.375 0.8125 0.375q0.265625 0 0.46875 -0.125q0.203125 -0.125 0.34375 -0.328125q0.140625 -0.203125 0.203125 -0.484375q0.078125 -0.296875 0.078125 -0.640625zm6.046875 7.65625q0 0.578125 -0.171875 1.09375q-0.171875 0.5 -0.5 0.875q-0.328125 0.359375 -0.796875 0.578125q-0.453125 0.203125 -1.015625 0.203125q-0.546875 0 -1.0 -0.171875q-0.4375 -0.171875 -0.75 -0.5q-0.3125 -0.34375 -0.484375 -0.84375q-0.171875 -0.515625 -0.171875 -1.171875q0 -0.578125 0.171875 -1.078125q0.1875 -0.515625 0.5 -0.890625q0.328125 -0.375 0.78125 -0.578125q0.46875 -0.203125 1.03125 -0.203125q0.5625 0 1.0 0.171875q0.453125 0.171875 0.765625 0.515625q0.3125 0.328125 0.46875 0.84375q0.171875 0.5 0.171875 1.15625zm-1.328125 0.03125q0 -0.796875 -0.296875 -1.171875q-0.296875 -0.390625 -0.8125 -0.390625q-0.265625 0 -0.46875 0.125q-0.203125 0.109375 -0.359375 0.328125q-0.140625 0.203125 -0.21875 0.484375q-0.0625 0.28125 -0.0625 0.625q0 0.796875 0.28125 1.1875q0.296875 0.375 0.828125 0.375q0.265625 0 0.46875 -0.109375q0.203125 -0.125 0.34375 -0.328125q0.140625 -0.21875 0.21875 -0.5q0.078125 -0.296875 0.078125 -0.625z" fill-rule="nonzero"/><path fill="#c53929" d="m304.84998 65.80496q-1.25 -0.265625 -2.15625 -0.265625q-2.140625 0 -2.140625 2.234375l0 1.609375l4.015625 0l0 1.3125l-4.015625 0l0 6.5l-1.609375 0l0 -6.5l-2.9375 0l0 -1.3125l2.9375 0l0 -1.515625q0 -3.65625 3.8125 -3.65625q0.9375 0 2.09375 0.21875l0 1.375zm-9.578125 2.25l0 0z" fill-rule="nonzero"/><path fill="#9c27b0" d="m320.36456 69.36746l-2.703125 0l0 -1.3125l4.296875 0l0 7.8125l2.734375 0l0 1.328125l-7.34375 0l0 -1.328125l3.015625 0l0 -6.5zm0.546875 -5.15625q0.265625 0 0.484375 0.09375q0.234375 0.09375 0.40625 0.28125q0.171875 0.171875 0.265625 0.390625q0.09375 0.21875 0.09375 0.484375q0 0.25 -0.09375 0.484375q-0.09375 0.234375 -0.265625 0.40625q-0.171875 0.171875 -0.40625 0.265625q-0.21875 0.09375 -0.484375 0.09375q-0.265625 0 -0.5 -0.09375q-0.21875 -0.09375 -0.390625 -0.265625q-0.15625 -0.171875 -0.265625 -0.40625q-0.09375 -0.234375 -0.09375 -0.484375q0 -0.265625 0.09375 -0.484375q0.109375 -0.21875 0.265625 -0.390625q0.171875 -0.1875 0.390625 -0.28125q0.234375 -0.09375 0.5 -0.09375zm6.5854187 3.84375l1.421875 0l0.0625 1.46875q0.390625 -0.46875 0.765625 -0.78125q0.375 -0.3125 0.734375 -0.5q0.359375 -0.203125 0.734375 -0.28125q0.375 -0.078125 0.78125 -0.078125q1.40625 0 2.125 0.84375q0.734375 0.828125 0.734375 2.5l0 5.96875l-1.59375 0l0 -5.84375q0 -1.078125 -0.40625 -1.578125q-0.390625 -0.515625 -1.1875 -0.515625q-0.28125 0 -0.5625 0.09375q-0.28125 0.078125 -0.578125 0.296875q-0.296875 0.203125 -0.65625 0.578125q-0.34375 0.359375 -0.78125 0.90625l0 6.0625l-1.59375 0l0 -9.140625zm17.632294 9.015625q-0.53125 0.140625 -1.109375 0.1875q-0.578125 0.0625 -1.171875 0.0625q-1.71875 0 -2.5625 -0.78125q-0.84375 -0.78125 -0.84375 -2.390625l0 -4.765625l-2.5625 0l0 -1.328125l2.5625 0l0 -2.515625l1.578125 -0.40625l0 2.921875l4.109375 0l0 1.328125l-4.109375 0l0 4.640625q0 0.984375 0.515625 1.46875q0.53125 0.484375 1.546875 0.484375q0.4375 0 0.953125 -0.0625q0.53125 -0.0625 1.09375 -0.21875l0 1.375zm10.851044 -4.515625q0 1.0625 -0.3125 1.953125q-0.296875 0.890625 -0.859375 1.53125q-0.5625 0.625 -1.375 0.96875q-0.8125 0.34375 -1.84375 0.34375q-0.984375 0 -1.765625 -0.296875q-0.765625 -0.3125 -1.3125 -0.890625q-0.546875 -0.59375 -0.828125 -1.46875q-0.28125 -0.875 -0.28125 -2.015625q0 -1.0625 0.296875 -1.9375q0.296875 -0.890625 0.859375 -1.515625q0.5625 -0.640625 1.375 -0.984375q0.8125 -0.359375 1.84375 -0.359375q0.984375 0 1.765625 0.3125q0.78125 0.296875 1.3125 0.890625q0.546875 0.578125 0.828125 1.453125q0.296875 0.875 0.296875 2.015625zm-1.625 0.0625q0 -0.84375 -0.1875 -1.46875q-0.1875 -0.640625 -0.53125 -1.0625q-0.34375 -0.421875 -0.84375 -0.640625q-0.5 -0.21875 -1.109375 -0.21875q-0.703125 0 -1.21875 0.28125q-0.5 0.28125 -0.828125 0.75q-0.3125 0.453125 -0.46875 1.078125q-0.15625 0.609375 -0.15625 1.28125q0 0.859375 0.1875 1.5q0.1875 0.625 0.53125 1.046875q0.359375 0.421875 0.84375 0.640625q0.5 0.21875 1.109375 0.21875q0.71875 0 1.21875 -0.28125q0.5 -0.28125 0.828125 -0.734375q0.328125 -0.46875 0.46875 -1.078125q0.15625 -0.625 0.15625 -1.3125z" fill-rule="nonzero"/><path fill="#616161" d="m377.15103 64.32059l-8.40625 12.875l-1.484375 0l8.375 -12.875l1.515625 0zm-4.859375 2.546875q0 0.59375 -0.171875 1.109375q-0.171875 0.5 -0.5 0.875q-0.3125 0.359375 -0.78125 0.578125q-0.453125 0.21875 -1.03125 0.21875q-0.546875 0 -1.0 -0.171875q-0.4375 -0.171875 -0.75 -0.515625q-0.3125 -0.34375 -0.484375 -0.84375q-0.15625 -0.5 -0.15625 -1.15625q0 -0.59375 0.171875 -1.09375q0.171875 -0.5 0.484375 -0.875q0.328125 -0.375 0.78125 -0.578125q0.46875 -0.21875 1.03125 -0.21875q0.5625 0 1.0 0.171875q0.4375 0.171875 0.75 0.515625q0.3125 0.328125 0.484375 0.828125q0.171875 0.5 0.171875 1.15625zm-1.34375 0.046875q0 -0.796875 -0.296875 -1.171875q-0.28125 -0.390625 -0.796875 -0.390625q-0.265625 0 -0.46875 0.125q-0.203125 0.109375 -0.34375 0.328125q-0.140625 0.203125 -0.21875 0.5q-0.078125 0.28125 -0.078125 0.609375q0 0.8125 0.296875 1.203125q0.296875 0.375 0.8125 0.375q0.265625 0 0.46875 -0.125q0.203125 -0.125 0.34375 -0.328125q0.140625 -0.203125 0.203125 -0.484375q0.078125 -0.296875 0.078125 -0.640625zm6.046875 7.65625q0 0.578125 -0.171875 1.09375q-0.171875 0.5 -0.5 0.875q-0.328125 0.359375 -0.796875 0.578125q-0.453125 0.203125 -1.015625 0.203125q-0.546875 0 -1.0 -0.171875q-0.4375 -0.171875 -0.75 -0.5q-0.3125 -0.34375 -0.484375 -0.84375q-0.171875 -0.515625 -0.171875 -1.171875q0 -0.578125 0.171875 -1.078125q0.1875 -0.515625 0.5 -0.890625q0.328125 -0.375 0.78125 -0.578125q0.46875 -0.203125 1.03125 -0.203125q0.5625 0 1.0 0.171875q0.453125 0.171875 0.765625 0.515625q0.3125 0.328125 0.46875 0.84375q0.171875 0.5 0.171875 1.15625zm-1.328125 0.03125q0 -0.796875 -0.296875 -1.171875q-0.296875 -0.390625 -0.8125 -0.390625q-0.265625 0 -0.46875 0.125q-0.203125 0.109375 -0.359375 0.328125q-0.140625 0.203125 -0.21875 0.484375q-0.0625 0.28125 -0.0625 0.625q0 0.796875 0.28125 1.1875q0.296875 0.375 0.828125 0.375q0.265625 0 0.46875 -0.109375q0.203125 -0.125 0.34375 -0.328125q0.140625 -0.21875 0.21875 -0.5q0.078125 -0.296875 0.078125 -0.625z" fill-rule="nonzero"/><path fill="#c53929" d="m386.15833 77.07059q-0.53125 0.140625 -1.109375 0.1875q-0.578125 0.0625 -1.171875 0.0625q-1.71875 0 -2.5625 -0.78125q-0.84375 -0.78125 -0.84375 -2.390625l0 -4.765625l-2.5625 0l0 -1.328125l2.5625 0l0 -2.515625l1.578125 -0.40625l0 2.921875l4.109375 0l0 1.328125l-4.109375 0l0 4.640625q0 0.984375 0.515625 1.46875q0.53125 0.484375 1.546875 0.484375q0.4375 0 0.953125 -0.0625q0.53125 -0.0625 1.09375 -0.21875l0 1.375z" fill-rule="nonzero"/><path fill="#616161" d="m395.22812 80.92996l-4.5 0l0 -16.921875l4.5 0l0 1.265625l-2.984375 0l0 14.375l2.984375 0l0 1.28125zm12.694794 -16.609375l-8.40625 12.875l-1.484375 0l8.375 -12.875l1.515625 0zm-4.859375 2.546875q0 0.59375 -0.171875 1.109375q-0.171875 0.5 -0.5 0.875q-0.3125 0.359375 -0.78125 0.578125q-0.453125 0.21875 -1.03125 0.21875q-0.546875 0 -1.0 -0.171875q-0.4375 -0.171875 -0.75 -0.515625q-0.3125 -0.34375 -0.484375 -0.84375q-0.15625 -0.5 -0.15625 -1.15625q0 -0.59375 0.171875 -1.09375q0.171875 -0.5 0.484375 -0.875q0.328125 -0.375 0.78125 -0.578125q0.46875 -0.21875 1.03125 -0.21875q0.5625 0 1.0 0.171875q0.4375 0.171875 0.75 0.515625q0.3125 0.328125 0.484375 0.828125q0.171875 0.5 0.171875 1.15625zm-1.34375 0.046875q0 -0.796875 -0.296875 -1.171875q-0.28125 -0.390625 -0.796875 -0.390625q-0.265625 0 -0.46875 0.125q-0.203125 0.109375 -0.34375 0.328125q-0.140625 0.203125 -0.21875 0.5q-0.078125 0.28125 -0.078125 0.609375q0 0.8125 0.296875 1.203125q0.296875 0.375 0.8125 0.375q0.265625 0 0.46875 -0.125q0.203125 -0.125 0.34375 -0.328125q0.140625 -0.203125 0.203125 -0.484375q0.078125 -0.296875 0.078125 -0.640625zm6.046875 7.65625q0 0.578125 -0.171875 1.09375q-0.171875 0.5 -0.5 0.875q-0.328125 0.359375 -0.796875 0.578125q-0.453125 0.203125 -1.015625 0.203125q-0.546875 0 -1.0 -0.171875q-0.4375 -0.171875 -0.75 -0.5q-0.3125 -0.34375 -0.484375 -0.84375q-0.171875 -0.515625 -0.171875 -1.171875q0 -0.578125 0.171875 -1.078125q0.1875 -0.515625 0.5 -0.890625q0.328125 -0.375 0.78125 -0.578125q0.46875 -0.203125 1.03125 -0.203125q0.5625 0 1.0 0.171875q0.453125 0.171875 0.765625 0.515625q0.3125 0.328125 0.46875 0.84375q0.171875 0.5 0.171875 1.15625zm-1.328125 0.03125q0 -0.796875 -0.296875 -1.171875q-0.296875 -0.390625 -0.8125 -0.390625q-0.265625 0 -0.46875 0.125q-0.203125 0.109375 -0.359375 0.328125q-0.140625 0.203125 -0.21875 0.484375q-0.0625 0.28125 -0.0625 0.625q0 0.796875 0.28125 1.1875q0.296875 0.375 0.828125 0.375q0.265625 0 0.46875 -0.109375q0.203125 -0.125 0.34375 -0.328125q0.140625 -0.21875 0.21875 -0.5q0.078125 -0.296875 0.078125 -0.625z" fill-rule="nonzero"/><path fill="#c53929" d="m412.6802 69.36746l-2.703125 0l0 -1.3125l4.296875 0l0 7.8125l2.734375 0l0 1.328125l-7.34375 0l0 -1.328125l3.015625 0l0 -6.5zm0.546875 -5.15625q0.265625 0 0.484375 0.09375q0.234375 0.09375 0.40625 0.28125q0.171875 0.171875 0.265625 0.390625q0.09375 0.21875 0.09375 0.484375q0 0.25 -0.09375 0.484375q-0.09375 0.234375 -0.265625 0.40625q-0.171875 0.171875 -0.40625 0.265625q-0.21875 0.09375 -0.484375 0.09375q-0.265625 0 -0.5 -0.09375q-0.21875 -0.09375 -0.390625 -0.265625q-0.15625 -0.171875 -0.265625 -0.40625q-0.09375 -0.234375 -0.09375 -0.484375q0 -0.265625 0.09375 -0.484375q0.109375 -0.21875 0.265625 -0.390625q0.171875 -0.1875 0.390625 -0.28125q0.234375 -0.09375 0.5 -0.09375zm6.1322937 8.609375q0 -1.171875 0.3125 -2.078125q0.3125 -0.90625 0.90625 -1.53125q0.59375 -0.625 1.40625 -0.9375q0.828125 -0.328125 1.84375 -0.328125q0.4375 0 0.859375 0.0625q0.421875 0.046875 0.828125 0.15625l0 -3.84375l1.59375 0l0 12.875l-1.421875 0l-0.046875 -1.734375q-0.671875 0.96875 -1.453125 1.4375q-0.765625 0.453125 -1.671875 0.453125q-0.78125 0 -1.375 -0.3125q-0.59375 -0.328125 -1.0 -0.921875q-0.390625 -0.609375 -0.59375 -1.4375q-0.1875 -0.84375 -0.1875 -1.859375zm1.609375 -0.109375q0 1.65625 0.484375 2.484375q0.5 0.8125 1.390625 0.8125q0.59375 0 1.265625 -0.53125q0.671875 -0.546875 1.40625 -1.609375l0 -4.234375q-0.390625 -0.1875 -0.859375 -0.28125q-0.46875 -0.09375 -0.9375 -0.09375q-1.296875 0 -2.03125 0.84375q-0.71875 0.828125 -0.71875 2.609375zm17.351044 4.484375l-2.109375 0l-2.46875 -3.484375l-2.4375 3.484375l-2.046875 0l3.546875 -4.59375l-3.390625 -4.546875l2.03125 0l2.40625 3.515625l2.359375 -3.515625l1.96875 0l-3.4375 4.578125l3.578125 4.5625z" fill-rule="nonzero"/><path fill="#616161" d="m445.98334 80.92996l-4.484375 0l0 -1.28125l2.953125 0l0 -14.375l-2.953125 0l0 -1.265625l4.484375 0l0 16.921875z" fill-rule="nonzero"/><path fill="#616161" d="m464.51355 67.88309q0.28125 0 0.53125 0.125q0.265625 0.109375 0.453125 0.296875q0.1875 0.1875 0.296875 0.453125q0.125 0.25 0.125 0.53125q0 0.296875 -0.125 0.546875q-0.109375 0.25 -0.296875 0.4375q-0.1875 0.1875 -0.453125 0.296875q-0.25 0.109375 -0.53125 0.109375q-0.28125 0 -0.53125 -0.109375q-0.25 -0.109375 -0.453125 -0.296875q-0.1875 -0.1875 -0.296875 -0.4375q-0.109375 -0.25 -0.109375 -0.546875q0 -0.28125 0.109375 -0.53125q0.109375 -0.265625 0.296875 -0.453125q0.203125 -0.1875 0.453125 -0.296875q0.25 -0.125 0.53125 -0.125zm0 6.6875q0.28125 0 0.53125 0.109375q0.265625 0.109375 0.453125 0.3125q0.1875 0.1875 0.296875 0.4375q0.125 0.25 0.125 0.53125q0 0.296875 -0.125 0.546875q-0.109375 0.25 -0.296875 0.453125q-0.1875 0.1875 -0.453125 0.28125q-0.25 0.109375 -0.53125 0.109375q-0.28125 0 -0.53125 -0.109375q-0.25 -0.09375 -0.453125 -0.28125q-0.1875 -0.203125 -0.296875 -0.453125q-0.109375 -0.25 -0.109375 -0.546875q0 -0.28125 0.109375 -0.53125q0.109375 -0.25 0.296875 -0.4375q0.203125 -0.203125 0.453125 -0.3125q0.25 -0.109375 0.53125 -0.109375z" fill-rule="nonzero"/><path fill="#000000" d="m488.73126 77.07059q-0.53125 0.140625 -1.109375 0.1875q-0.578125 0.0625 -1.171875 0.0625q-1.71875 0 -2.5625 -0.78125q-0.84375 -0.78125 -0.84375 -2.390625l0 -4.765625l-2.5625 0l0 -1.328125l2.5625 0l0 -2.515625l1.578125 -0.40625l0 2.921875l4.109375 0l0 1.328125l-4.109375 0l0 4.640625q0 0.984375 0.515625 1.46875q0.53125 0.484375 1.546875 0.484375q0.4375 0 0.953125 -0.0625q0.53125 -0.0625 1.09375 -0.21875l0 1.375zm10.616669 -4.9375q0 0.34375 -0.015625 0.578125q0 0.21875 -0.03125 0.421875l-6.421875 0q0 1.40625 0.78125 2.15625q0.796875 0.75 2.265625 0.75q0.40625 0 0.796875 -0.03125q0.40625 -0.03125 0.78125 -0.078125q0.375 -0.0625 0.71875 -0.125q0.34375 -0.078125 0.625 -0.15625l0 1.296875q-0.640625 0.1875 -1.46875 0.296875q-0.8125 0.109375 -1.6875 0.109375q-1.171875 0 -2.015625 -0.3125q-0.84375 -0.3125 -1.390625 -0.921875q-0.546875 -0.609375 -0.8125 -1.484375q-0.25 -0.875 -0.25 -2.0q0 -0.953125 0.28125 -1.8125q0.28125 -0.859375 0.8125 -1.515625q0.53125 -0.65625 1.296875 -1.03125q0.78125 -0.390625 1.765625 -0.390625q0.953125 0 1.6875 0.3125q0.75 0.296875 1.25 0.84375q0.5 0.546875 0.765625 1.34375q0.265625 0.78125 0.265625 1.75zm-1.65625 -0.21875q0.03125 -0.609375 -0.125 -1.109375q-0.140625 -0.515625 -0.453125 -0.875q-0.296875 -0.375 -0.75 -0.578125q-0.453125 -0.203125 -1.0625 -0.203125q-0.515625 0 -0.953125 0.203125q-0.421875 0.203125 -0.734375 0.5625q-0.296875 0.359375 -0.5 0.875q-0.1875 0.515625 -0.234375 1.125l4.8125 0zm4.1791687 -3.859375l1.421875 0l0.0625 1.46875q0.390625 -0.46875 0.765625 -0.78125q0.375 -0.3125 0.734375 -0.5q0.359375 -0.203125 0.734375 -0.28125q0.375 -0.078125 0.78125 -0.078125q1.40625 0 2.125 0.84375q0.734375 0.828125 0.734375 2.5l0 5.96875l-1.59375 0l0 -5.84375q0 -1.078125 -0.40625 -1.578125q-0.390625 -0.515625 -1.1875 -0.515625q-0.28125 0 -0.5625 0.09375q-0.28125 0.078125 -0.578125 0.296875q-0.296875 0.203125 -0.65625 0.578125q-0.34375 0.359375 -0.78125 0.90625l0 6.0625l-1.59375 0l0 -9.140625zm17.507324 6.640625q0 0.484375 -0.171875 0.875q-0.15625 0.375 -0.4375 0.671875q-0.28125 0.296875 -0.65625 0.515625q-0.375 0.203125 -0.796875 0.34375q-0.421875 0.125 -0.875 0.1875q-0.453125 0.0625 -0.875 0.0625q-0.921875 0 -1.703125 -0.078125q-0.78125 -0.078125 -1.53125 -0.265625l0 -1.453125q0.796875 0.234375 1.59375 0.359375q0.796875 0.109375 1.578125 0.109375q1.140625 0 1.6875 -0.3125q0.546875 -0.3125 0.546875 -0.890625q0 -0.234375 -0.09375 -0.421875q-0.078125 -0.203125 -0.3125 -0.375q-0.21875 -0.1875 -0.703125 -0.375q-0.484375 -0.203125 -1.3125 -0.4375q-0.609375 -0.1875 -1.140625 -0.421875q-0.515625 -0.234375 -0.90625 -0.546875q-0.375 -0.328125 -0.59375 -0.75q-0.21875 -0.421875 -0.21875 -1.015625q0 -0.375 0.171875 -0.828125q0.171875 -0.453125 0.59375 -0.84375q0.4375 -0.40625 1.171875 -0.65625q0.734375 -0.265625 1.8125 -0.265625q0.546875 0 1.203125 0.0625q0.65625 0.0625 1.359375 0.203125l0 1.40625q-0.75 -0.171875 -1.421875 -0.25q-0.65625 -0.09375 -1.15625 -0.09375q-0.59375 0 -1.0 0.09375q-0.390625 0.078125 -0.65625 0.25q-0.25 0.15625 -0.359375 0.375q-0.109375 0.203125 -0.109375 0.453125q0 0.25 0.09375 0.453125q0.109375 0.1875 0.359375 0.375q0.265625 0.1875 0.71875 0.375q0.46875 0.1875 1.21875 0.40625q0.8125 0.234375 1.359375 0.5q0.5625 0.25 0.90625 0.578125q0.359375 0.3125 0.5 0.71875q0.15625 0.40625 0.15625 0.90625zm10.976013 -2.140625q0 1.0625 -0.3125 1.953125q-0.296875 0.890625 -0.859375 1.53125q-0.5625 0.625 -1.375 0.96875q-0.8125 0.34375 -1.84375 0.34375q-0.984375 0 -1.765625 -0.296875q-0.765625 -0.3125 -1.3125 -0.890625q-0.546875 -0.59375 -0.828125 -1.46875q-0.28125 -0.875 -0.28125 -2.015625q0 -1.0625 0.296875 -1.9375q0.296875 -0.890625 0.859375 -1.515625q0.5625 -0.640625 1.375 -0.984375q0.8125 -0.359375 1.84375 -0.359375q0.984375 0 1.765625 0.3125q0.78125 0.296875 1.3125 0.890625q0.546875 0.578125 0.828125 1.453125q0.296875 0.875 0.296875 2.015625zm-1.625 0.0625q0 -0.84375 -0.1875 -1.46875q-0.1875 -0.640625 -0.53125 -1.0625q-0.34375 -0.421875 -0.84375 -0.640625q-0.5 -0.21875 -1.109375 -0.21875q-0.703125 0 -1.21875 0.28125q-0.5 0.28125 -0.828125 0.75q-0.3125 0.453125 -0.46875 1.078125q-0.15625 0.609375 -0.15625 1.28125q0 0.859375 0.1875 1.5q0.1875 0.625 0.53125 1.046875q0.359375 0.421875 0.84375 0.640625q0.5 0.21875 1.109375 0.21875q0.71875 0 1.21875 -0.28125q0.5 -0.28125 0.828125 -0.734375q0.328125 -0.46875 0.46875 -1.078125q0.15625 -0.625 0.15625 -1.3125zm4.288574 -4.5625l1.453125 0l0.046875 1.6875q0.8125 -0.984375 1.59375 -1.421875q0.796875 -0.4375 1.59375 -0.4375q1.421875 0 2.15625 0.921875q0.734375 0.921875 0.671875 2.734375l-1.59375 0q0.015625 -1.203125 -0.359375 -1.734375q-0.375 -0.546875 -1.109375 -0.546875q-0.3125 0 -0.640625 0.109375q-0.328125 0.109375 -0.671875 0.359375q-0.328125 0.25 -0.71875 0.640625q-0.375 0.390625 -0.8125 0.953125l0 5.875l-1.609375 0l0 -9.140625z" fill-rule="nonzero"/><path fill="#616161" d="m549.8063 76.33621l-0.984375 1.0l-6.125 -5.109375l6.125 -5.109375l0.984375 1.015625l-4.96875 4.078125l4.96875 4.125z" fill-rule="nonzero"/><path fill="#c53929" d="m560.5792 73.38309q0 0.890625 -0.390625 1.625q-0.375 0.71875 -1.046875 1.25q-0.65625 0.515625 -1.578125 0.8125q-0.90625 0.28125 -1.953125 0.28125q-0.265625 0 -0.578125 -0.015625q-0.296875 0 -0.609375 -0.03125q-0.296875 -0.015625 -0.59375 -0.046875q-0.28125 -0.03125 -0.5 -0.0625l0 -1.4375q0.484375 0.109375 1.109375 0.171875q0.640625 0.046875 1.296875 0.046875q0.71875 0 1.296875 -0.171875q0.59375 -0.171875 1.0 -0.484375q0.40625 -0.328125 0.625 -0.78125q0.21875 -0.46875 0.21875 -1.046875q0 -1.109375 -0.796875 -1.609375q-0.796875 -0.515625 -2.28125 -0.515625l-2.265625 0l0 -6.078125l6.421875 0l0 1.390625l-4.921875 0l0 3.34375l1.03125 0q0.859375 0 1.671875 0.15625q0.8125 0.140625 1.4375 0.53125q0.640625 0.390625 1.015625 1.046875q0.390625 0.640625 0.390625 1.625zm11.085388 3.8125l-2.109375 0l-2.46875 -3.484375l-2.4375 3.484375l-2.046875 0l3.546875 -4.59375l-3.390625 -4.546875l2.03125 0l2.40625 3.515625l2.359375 -3.515625l1.96875 0l-3.4375 4.578125l3.578125 4.5625zm10.132324 -11.390625q-1.25 -0.265625 -2.15625 -0.265625q-2.140625 0 -2.140625 2.234375l0 1.609375l4.015625 0l0 1.3125l-4.015625 0l0 6.5l-1.609375 0l0 -6.5l-2.9375 0l0 -1.3125l2.9375 0l0 -1.515625q0 -3.65625 3.8125 -3.65625q0.9375 0 2.09375 0.21875l0 1.375zm-9.578125 2.25l0 0zm19.210388 5.53125q0 0.78125 -0.328125 1.46875q-0.3125 0.6875 -0.953125 1.203125q-0.625 0.515625 -1.59375 0.8125q-0.96875 0.28125 -2.25 0.28125q-0.71875 0 -1.28125 -0.046875q-0.5625 -0.03125 -1.046875 -0.109375l0 -1.421875q0.5625 0.09375 1.1875 0.15625q0.625 0.046875 1.28125 0.046875q0.890625 0 1.515625 -0.15625q0.640625 -0.15625 1.046875 -0.453125q0.40625 -0.296875 0.578125 -0.71875q0.1875 -0.4375 0.1875 -0.984375q0 -0.484375 -0.21875 -0.84375q-0.21875 -0.375 -0.625 -0.609375q-0.390625 -0.25 -0.9375 -0.375q-0.546875 -0.125 -1.203125 -0.125l-1.359375 0l0 -1.296875l1.375 0q0.53125 0 0.96875 -0.140625q0.453125 -0.140625 0.765625 -0.40625q0.3125 -0.265625 0.484375 -0.65625q0.171875 -0.390625 0.171875 -0.875q0 -0.953125 -0.59375 -1.390625q-0.578125 -0.4375 -1.703125 -0.4375q-0.609375 0 -1.25 0.125q-0.625 0.109375 -1.359375 0.34375l0 -1.390625q0.3125 -0.109375 0.65625 -0.1875q0.359375 -0.09375 0.703125 -0.140625q0.359375 -0.0625 0.703125 -0.09375q0.34375 -0.03125 0.65625 -0.03125q0.953125 0 1.671875 0.203125q0.71875 0.203125 1.203125 0.59375q0.484375 0.375 0.71875 0.921875q0.25 0.546875 0.25 1.21875q0 1.03125 -0.53125 1.71875q-0.515625 0.6875 -1.421875 1.109375q0.46875 0.0625 0.90625 0.28125q0.453125 0.21875 0.8125 0.5625q0.375 0.34375 0.59375 0.8125q0.21875 0.453125 0.21875 1.03125zm10.491699 3.609375l-7.84375 0l0 -1.421875l3.078125 -3.0625q0.75 -0.75 1.21875 -1.296875q0.484375 -0.546875 0.75 -0.984375q0.265625 -0.453125 0.34375 -0.859375q0.09375 -0.40625 0.09375 -0.859375q0 -0.4375 -0.125 -0.828125q-0.109375 -0.40625 -0.359375 -0.703125q-0.234375 -0.3125 -0.640625 -0.484375q-0.390625 -0.171875 -0.9375 -0.171875q-0.75 0 -1.375 0.34375q-0.609375 0.328125 -1.125 0.875l-0.875 -1.046875q0.671875 -0.71875 1.546875 -1.140625q0.875 -0.421875 2.046875 -0.421875q0.796875 0 1.4375 0.234375q0.65625 0.234375 1.125 0.6875q0.484375 0.4375 0.734375 1.09375q0.265625 0.640625 0.265625 1.453125q0 0.671875 -0.1875 1.265625q-0.171875 0.578125 -0.546875 1.15625q-0.375 0.578125 -0.9375 1.203125q-0.546875 0.609375 -1.3125 1.359375l-2.171875 2.09375l5.796875 0l0 1.515625z" fill-rule="nonzero"/><path fill="#616161" d="m604.8969 68.13309l0.984375 -1.015625l6.125 5.109375l-6.125 5.109375l-0.984375 -1.0l4.96875 -4.09375l-4.96875 -4.109375z" fill-rule="nonzero"/><path fill="#000000" fill-opacity="0.0" d="m376.13647 58.68504l-12.75589 -23.464565" fill-rule="evenodd"/><path stroke="#ff0000" stroke-width="1.0" stroke-linejoin="round" stroke-linecap="butt" d="m376.13647 58.68504l-12.75589 -23.464565" fill-rule="evenodd"/><path fill="#000000" fill-opacity="0.0" d="m297.02362 4.5826774l154.14172 0l0 23.464567l-154.14172 0z" fill-rule="evenodd"/><path fill="#000000" d="m308.58612 17.846426l0.734375 0.484375l-0.90625 1.40625q0.3125 0.046875 0.578125 0.328125q0.28125 0.265625 0.28125 0.734375q0 0.5 -0.34375 0.84375q-0.34375 0.34375 -0.828125 0.34375q-0.25 0 -0.484375 -0.09375q-0.21875 -0.09375 -0.375 -0.25q-0.15625 -0.15625 -0.25 -0.375q-0.09375 -0.234375 -0.09375 -0.46875q0 -0.234375 0.0625 -0.4375q0.0625 -0.21875 0.1875 -0.421875q0.125 -0.203125 0.25 -0.390625l1.1875 -1.703125zm3.15625 0l0.734375 0.484375l-0.90625 1.40625q0.3125 0.046875 0.578125 0.328125q0.28125 0.265625 0.28125 0.734375q0 0.5 -0.34375 0.84375q-0.34375 0.34375 -0.828125 0.34375q-0.25 0 -0.484375 -0.09375q-0.21875 -0.09375 -0.375 -0.25q-0.15625 -0.15625 -0.25 -0.375q-0.09375 -0.234375 -0.09375 -0.46875q0 -0.234375 0.0625 -0.4375q0.0625 -0.21875 0.1875 -0.421875q0.125 -0.203125 0.25 -0.390625l1.1875 -1.703125zm5.711914 13.953125q-1.28125 0 -2.328125 -0.640625q-1.03125 -0.65625 -1.625 -1.796875q-0.59375 -1.140625 -0.59375 -2.609375q0 -1.484375 0.59375 -2.609375q0.59375 -1.140625 1.625 -1.796875q1.046875 -0.65625 2.328125 -0.65625q0.765625 0 1.390625 0.25q0.640625 0.234375 1.109375 0.625q0.484375 0.390625 0.75 0.84375l0.078125 0l-0.078125 -1.328125l0 -3.9375l1.59375 0l0 13.359375l-1.515625 0l0 -1.40625l-0.078125 0q-0.265625 0.4375 -0.75 0.828125q-0.46875 0.390625 -1.109375 0.625q-0.625 0.25 -1.390625 0.25zm0.171875 -1.4375q0.828125 0 1.546875 -0.4375q0.71875 -0.4375 1.15625 -1.25q0.453125 -0.8125 0.453125 -1.921875q0 -1.125 -0.453125 -1.9375q-0.4375 -0.8125 -1.15625 -1.25q-0.71875 -0.4375 -1.546875 -0.4375q-0.8125 0 -1.53125 0.4375q-0.71875 0.4375 -1.171875 1.25q-0.453125 0.8125 -0.453125 1.9375q0 1.09375 0.453125 1.921875q0.453125 0.8125 1.171875 1.25q0.71875 0.4375 1.53125 0.4375zm11.153351 1.4375q-1.375 0 -2.453125 -0.640625q-1.0625 -0.65625 -1.671875 -1.796875q-0.609375 -1.140625 -0.609375 -2.59375q0 -1.359375 0.5625 -2.515625q0.578125 -1.15625 1.609375 -1.859375q1.03125 -0.703125 2.4375 -0.703125q1.421875 0 2.4375 0.625q1.015625 0.625 1.5625 1.734375q0.546875 1.09375 0.546875 2.515625q0 0.125 -0.015625 0.265625q0 0.125 -0.015625 0.21875l-8.1875 0l0 -1.3125l6.546875 0q-0.015625 -0.390625 -0.1875 -0.84375q-0.15625 -0.46875 -0.5 -0.859375q-0.34375 -0.40625 -0.875 -0.65625q-0.53125 -0.25 -1.3125 -0.25q-0.9375 0 -1.625 0.484375q-0.671875 0.46875 -1.046875 1.296875q-0.359375 0.8125 -0.359375 1.859375q0 1.203125 0.46875 2.015625q0.46875 0.796875 1.203125 1.1875q0.75 0.390625 1.546875 0.390625q1.046875 0 1.71875 -0.484375q0.6875 -0.5 1.09375 -1.234375l1.34375 0.65625q-0.5625 1.078125 -1.609375 1.796875q-1.03125 0.703125 -2.609375 0.703125zm9.690552 0q-1.0625 0 -1.875 -0.34375q-0.8125 -0.34375 -1.34375 -0.921875q-0.53125 -0.59375 -0.796875 -1.28125l1.421875 -0.640625q0.375 0.859375 1.078125 1.328125q0.703125 0.46875 1.625 0.46875q0.875 0 1.453125 -0.359375q0.59375 -0.359375 0.59375 -1.046875q0 -0.421875 -0.25 -0.703125q-0.234375 -0.296875 -0.703125 -0.5q-0.453125 -0.21875 -1.125 -0.375l-1.15625 -0.3125q-0.671875 -0.1875 -1.28125 -0.515625q-0.59375 -0.34375 -0.953125 -0.875q-0.359375 -0.53125 -0.359375 -1.296875q0 -0.84375 0.5 -1.453125q0.5 -0.625 1.3125 -0.953125q0.828125 -0.328125 1.765625 -0.328125q0.8125 0 1.53125 0.234375q0.71875 0.234375 1.265625 0.6875q0.546875 0.453125 0.8125 1.125l-1.375 0.640625q-0.359375 -0.703125 -0.953125 -0.984375q-0.59375 -0.28125 -1.328125 -0.28125q-0.78125 0 -1.359375 0.34375q-0.578125 0.34375 -0.578125 0.9375q0 0.59375 0.46875 0.90625q0.484375 0.296875 1.171875 0.46875l1.390625 0.359375q1.390625 0.359375 2.09375 1.0625q0.71875 0.6875 0.71875 1.703125q0 0.890625 -0.515625 1.546875q-0.5 0.65625 -1.359375 1.015625q-0.84375 0.34375 -1.890625 0.34375zm4.746704 -9.8125l5.578125 0l0 1.4375l-5.578125 0l0 -1.4375zm1.671875 7.015625l0 -9.703125l1.578125 0l0 9.3125q0 0.75 0.3125 1.15625q0.3125 0.40625 1.015625 0.40625q0.3125 0 0.578125 -0.09375q0.265625 -0.09375 0.46875 -0.21875l0 1.546875q-0.25 0.109375 -0.546875 0.171875q-0.28125 0.078125 -0.765625 0.078125q-1.1875 0 -1.921875 -0.703125q-0.71875 -0.703125 -0.71875 -1.953125zm6.0434875 2.5l0 -9.515625l1.578125 0l0 9.515625l-1.578125 0zm0.78125 -11.265625q-0.46875 0 -0.8125 -0.328125q-0.328125 -0.34375 -0.328125 -0.8125q0 -0.484375 0.328125 -0.8125q0.34375 -0.328125 0.8125 -0.328125q0.484375 0 0.8125 0.328125q0.328125 0.328125 0.328125 0.8125q0 0.46875 -0.328125 0.8125q-0.328125 0.328125 -0.8125 0.328125zm3.2788086 11.265625l0 -9.515625l1.515625 0l0 1.40625l0.078125 0q0.375 -0.703125 1.21875 -1.203125q0.84375 -0.5 1.859375 -0.5q1.75 0 2.625 1.015625q0.890625 1.015625 0.890625 2.703125l0 6.09375l-1.578125 0l0 -5.859375q0 -1.375 -0.671875 -1.9375q-0.65625 -0.578125 -1.703125 -0.578125q-0.78125 0 -1.375 0.4375q-0.59375 0.4375 -0.9375 1.125q-0.328125 0.6875 -0.328125 1.453125l0 5.359375l-1.59375 0zm13.419708 0.296875q-1.0625 0 -1.875 -0.40625q-0.796875 -0.40625 -1.25 -1.125q-0.453125 -0.71875 -0.453125 -1.640625q0 -1.046875 0.53125 -1.765625q0.546875 -0.71875 1.453125 -1.078125q0.921875 -0.359375 2.015625 -0.359375q0.640625 0 1.171875 0.109375q0.546875 0.09375 0.9375 0.234375q0.40625 0.140625 0.625 0.265625l0 -0.578125q0 -1.078125 -0.765625 -1.703125q-0.765625 -0.640625 -1.875 -0.640625q-0.78125 0 -1.46875 0.34375q-0.671875 0.34375 -1.0625 0.953125l-1.203125 -0.890625q0.375 -0.5625 0.9375 -0.96875q0.5625 -0.40625 1.28125 -0.625q0.71875 -0.234375 1.515625 -0.234375q1.9375 0 3.03125 1.03125q1.109375 1.015625 1.109375 2.75l0 6.03125l-1.5 0l0 -1.359375l-0.078125 0q-0.25 0.40625 -0.703125 0.796875q-0.4375 0.375 -1.046875 0.609375q-0.609375 0.25 -1.328125 0.25zm0.140625 -1.390625q0.828125 0 1.5 -0.40625q0.6875 -0.421875 1.09375 -1.109375q0.421875 -0.6875 0.421875 -1.515625q-0.4375 -0.296875 -1.078125 -0.484375q-0.640625 -0.1875 -1.40625 -0.1875q-1.359375 0 -2.0 0.5625q-0.640625 0.5625 -0.640625 1.375q0 0.78125 0.59375 1.28125q0.609375 0.484375 1.515625 0.484375zm5.8760376 -8.421875l5.578125 0l0 1.4375l-5.578125 0l0 -1.4375zm1.671875 7.015625l0 -9.703125l1.578125 0l0 9.3125q0 0.75 0.3125 1.15625q0.3125 0.40625 1.015625 0.40625q0.3125 0 0.578125 -0.09375q0.265625 -0.09375 0.46875 -0.21875l0 1.546875q-0.25 0.109375 -0.546875 0.171875q-0.28125 0.078125 -0.765625 0.078125q-1.1875 0 -1.921875 -0.703125q-0.71875 -0.703125 -0.71875 -1.953125zm6.043518 2.5l0 -9.515625l1.578125 0l0 9.515625l-1.578125 0zm0.78125 -11.265625q-0.46875 0 -0.8125 -0.328125q-0.328125 -0.34375 -0.328125 -0.8125q0 -0.484375 0.328125 -0.8125q0.34375 -0.328125 0.8125 -0.328125q0.484375 0 0.8125 0.328125q0.328125 0.328125 0.328125 0.8125q0 0.46875 -0.328125 0.8125q-0.328125 0.328125 -0.8125 0.328125zm7.5760803 11.5625q-1.4375 0 -2.546875 -0.671875q-1.09375 -0.671875 -1.71875 -1.8125q-0.625 -1.15625 -0.625 -2.5625q0 -1.421875 0.625 -2.5625q0.625 -1.15625 1.71875 -1.828125q1.109375 -0.671875 2.546875 -0.671875q1.4375 0 2.53125 0.6875q1.109375 0.671875 1.734375 1.828125q0.625 1.140625 0.625 2.546875q0 1.40625 -0.625 2.5625q-0.625 1.140625 -1.734375 1.8125q-1.09375 0.671875 -2.53125 0.671875zm0 -1.4375q0.859375 0 1.609375 -0.421875q0.75 -0.4375 1.21875 -1.25q0.46875 -0.8125 0.46875 -1.9375q0 -1.140625 -0.46875 -1.953125q-0.46875 -0.8125 -1.21875 -1.234375q-0.75 -0.4375 -1.609375 -0.4375q-0.859375 0 -1.625 0.4375q-0.765625 0.421875 -1.234375 1.234375q-0.46875 0.8125 -0.46875 1.953125q0 1.125 0.46875 1.9375q0.46875 0.8125 1.234375 1.25q0.765625 0.421875 1.625 0.421875zm6.5418396 1.140625l0 -9.515625l1.515625 0l0 1.40625l0.078125 0q0.375 -0.703125 1.21875 -1.203125q0.84375 -0.5 1.859375 -0.5q1.75 0 2.625 1.015625q0.890625 1.015625 0.890625 2.703125l0 6.09375l-1.578125 0l0 -5.859375q0 -1.375 -0.671875 -1.9375q-0.65625 -0.578125 -1.703125 -0.578125q-0.78125 0 -1.375 0.4375q-0.59375 0.4375 -0.9375 1.125q-0.328125 0.6875 -0.328125 1.453125l0 5.359375l-1.59375 0zm9.795959 -10.0l0.984375 -1.40625q-0.34375 -0.0625 -0.640625 -0.328125q-0.28125 -0.265625 -0.28125 -0.734375q0 -0.5 0.34375 -0.84375q0.34375 -0.34375 0.828125 -0.34375q0.265625 0 0.46875 0.09375q0.21875 0.09375 0.375 0.25q0.15625 0.15625 0.25 0.375q0.09375 0.21875 0.09375 0.46875q0 0.234375 -0.078125 0.4375q-0.0625 0.203125 -0.1875 0.40625q-0.109375 0.203125 -0.234375 0.40625l-1.171875 1.703125l-0.75 -0.484375zm3.15625 0l0.984375 -1.40625q-0.34375 -0.0625 -0.640625 -0.328125q-0.28125 -0.265625 -0.28125 -0.734375q0 -0.5 0.34375 -0.84375q0.34375 -0.34375 0.828125 -0.34375q0.265625 0 0.46875 0.09375q0.21875 0.09375 0.375 0.25q0.15625 0.15625 0.25 0.375q0.09375 0.21875 0.09375 0.46875q0 0.234375 -0.078125 0.4375q-0.0625 0.203125 -0.1875 0.40625q-0.109375 0.203125 -0.234375 0.40625l-1.171875 1.703125l-0.75 -0.484375z" fill-rule="nonzero"/><path fill="#000000" fill-opacity="0.0" d="m100.52231 63.587925l54.61418 -21.952755" fill-rule="evenodd"/><path stroke="#ff0000" stroke-width="1.0" stroke-linejoin="round" stroke-linecap="butt" d="m100.52231 63.587925l54.61418 -21.952755" fill-rule="evenodd"/><path fill="#000000" fill-opacity="0.0" d="m366.43832 63.07874l-146.48819 -20.944881" fill-rule="evenodd"/><path stroke="#ff0000" stroke-width="1.0" stroke-linejoin="round" stroke-linecap="butt" d="m366.43832 63.07874l-146.48819 -20.944881" fill-rule="evenodd"/><path fill="#000000" fill-opacity="0.0" d="m-3.0367453 9.677165l388.15747 0l0 23.464565l-388.15747 0z" fill-rule="evenodd"/><path fill="#000000" d="m6.4788795 27.08154l5.5781255 0l0 1.4375l-5.5781255 0l0 -1.4375zm1.6718755 7.015625l0 -9.703125l1.578125 0l0 9.3125q0 0.75 0.3125 1.15625q0.3125 0.40625 1.015625 0.40625q0.3125 0 0.578125 -0.09375q0.265625 -0.09375 0.46875 -0.21875l0 1.546875q-0.25 0.109375 -0.546875 0.171875q-0.28125 0.078125 -0.765625 0.078125q-1.1875 0 -1.921875 -0.703125q-0.71875 -0.703125 -0.71875 -1.953125zm6.043503 2.5l0 -9.515625l1.578125 0l0 9.515625l-1.578125 0zm0.78125 -11.265625q-0.46875 0 -0.8125 -0.328125q-0.328125 -0.34375 -0.328125 -0.8125q0 -0.484375 0.328125 -0.8125q0.34375 -0.328125 0.8125 -0.328125q0.484375 0 0.8125 0.328125q0.328125 0.328125 0.328125 0.8125q0 0.46875 -0.328125 0.8125q-0.328125 0.328125 -0.8125 0.328125zm7.4198456 11.5625q-1.375 0 -2.453125 -0.640625q-1.0625 -0.65625 -1.671875 -1.796875q-0.609375 -1.140625 -0.609375 -2.59375q0 -1.359375 0.5625 -2.515625q0.578125 -1.15625 1.609375 -1.859375q1.03125 -0.703125 2.4375 -0.703125q1.421875 0 2.4375 0.625q1.015625 0.625 1.5625 1.734375q0.546875 1.09375 0.546875 2.515625q0 0.125 -0.015625 0.265625q0 0.125 -0.015625 0.21875l-8.1875 0l0 -1.3125l6.546875 0q-0.015625 -0.390625 -0.1875 -0.84375q-0.15625 -0.46875 -0.5 -0.859375q-0.34375 -0.40625 -0.875 -0.65625q-0.53125 -0.25 -1.3125 -0.25q-0.9375 0 -1.625 0.484375q-0.671875 0.46875 -1.046875 1.296875q-0.359375 0.8125 -0.359375 1.859375q0 1.203125 0.46875 2.015625q0.46875 0.796875 1.203125 1.1875q0.75 0.390625 1.546875 0.390625q1.046875 0 1.71875 -0.484375q0.6875 -0.5 1.09375 -1.234375l1.34375 0.65625q-0.5625 1.078125 -1.609375 1.796875q-1.03125 0.703125 -2.609375 0.703125zm10.4093 0q-1.2812481 0 -2.328123 -0.640625q-1.03125 -0.65625 -1.625 -1.796875q-0.59375 -1.140625 -0.59375 -2.609375q0 -1.484375 0.59375 -2.609375q0.59375 -1.140625 1.625 -1.796875q1.046875 -0.65625 2.328123 -0.65625q0.765625 0 1.390625 0.25q0.640625 0.234375 1.109375 0.625q0.484375 0.390625 0.75 0.84375l0.078125 0l-0.078125 -1.328125l0 -3.9375l1.59375 0l0 13.359375l-1.515625 0l0 -1.40625l-0.078125 0q-0.265625 0.4375 -0.75 0.828125q-0.46875 0.390625 -1.109375 0.625q-0.625 0.25 -1.390625 0.25zm0.171875 -1.4375q0.828125 0 1.546875 -0.4375q0.71875 -0.4375 1.15625 -1.25q0.453125 -0.8125 0.453125 -1.921875q0 -1.125 -0.453125 -1.9375q-0.4375 -0.8125 -1.15625 -1.25q-0.71875 -0.4375 -1.546875 -0.4375q-0.8125 0 -1.5312481 0.4375q-0.71875 0.4375 -1.171875 1.25q-0.453125 0.8125 -0.453125 1.9375q0 1.09375 0.453125 1.921875q0.453125 0.8125 1.171875 1.25q0.7187481 0.4375 1.5312481 0.4375zm17.48285 1.4375q-1.46875 0 -2.71875 -0.53125q-1.25 -0.546875 -2.1875 -1.5q-0.921875 -0.96875 -1.4375 -2.21875q-0.5 -1.265625 -0.5 -2.71875q0 -1.46875 0.5 -2.71875q0.515625 -1.265625 1.4375 -2.21875q0.9375 -0.96875 2.1875 -1.5q1.25 -0.546875 2.71875 -0.546875q1.46875 0 2.71875 0.546875q1.25 0.53125 2.171875 1.5q0.921875 0.953125 1.4375 2.21875q0.515625 1.25 0.515625 2.71875q0 1.453125 -0.515625 2.71875q-0.515625 1.25 -1.4375 2.21875q-0.921875 0.953125 -2.171875 1.5q-1.25 0.53125 -2.71875 0.53125zm0 -1.515625q1.453125 0 2.640625 -0.6875q1.1875 -0.6875 1.890625 -1.921875q0.703125 -1.25 0.703125 -2.84375q0 -1.625 -0.703125 -2.859375q-0.703125 -1.234375 -1.890625 -1.921875q-1.1875 -0.6875 -2.640625 -0.6875q-1.4375 0 -2.640625 0.6875q-1.1875 0.6875 -1.90625 1.921875q-0.703125 1.234375 -0.703125 2.859375q0 1.59375 0.703125 2.84375q0.71875 1.234375 1.90625 1.921875q1.203125 0.6875 2.640625 0.6875zm8.857132 5.25l0 -13.546875l1.515625 0l0 1.421875l0.078125 0q0.25 -0.453125 0.71875 -0.84375q0.484375 -0.390625 1.125 -0.625q0.640625 -0.25 1.3906288 -0.25q1.3125 0 2.328125 0.65625q1.03125 0.65625 1.625 1.796875q0.609375 1.125 0.609375 2.609375q0 1.46875 -0.609375 2.609375q-0.59375 1.140625 -1.625 1.796875q-1.015625 0.640625 -2.328125 0.640625q-1.1250038 0 -1.9843788 -0.515625q-0.859375 -0.53125 -1.25 -1.1875l-0.078125 0l0.078125 1.3125l0 4.125l-1.59375 0zm4.671875 -5.171875q0.8125038 0 1.5312538 -0.4375q0.71875 -0.4375 1.15625 -1.25q0.4375 -0.828125 0.4375 -1.921875q0 -1.125 -0.4375 -1.9375q-0.4375 -0.8125 -1.15625 -1.25q-0.71875 -0.4375 -1.5312538 -0.4375q-0.828125 0 -1.546875 0.4375q-0.71875 0.4375 -1.171875 1.25q-0.4375 0.8125 -0.4375 1.9375q0 1.109375 0.4375 1.921875q0.453125 0.8125 1.171875 1.25q0.71875 0.4375 1.546875 0.4375zm13.074818 1.4375q-1.46875 0 -2.71875 -0.53125q-1.25 -0.546875 -2.1875 -1.5q-0.921875 -0.96875 -1.4375 -2.21875q-0.5 -1.265625 -0.5 -2.71875q0 -1.46875 0.5 -2.71875q0.515625 -1.265625 1.4375 -2.21875q0.9375 -0.96875 2.1875 -1.5q1.25 -0.546875 2.71875 -0.546875q1.46875 0 2.71875 0.546875q1.25 0.53125 2.171875 1.5q0.921875 0.953125 1.4375 2.21875q0.515625 1.25 0.515625 2.71875q0 1.453125 -0.515625 2.71875q-0.515625 1.25 -1.4375 2.21875q-0.921875 0.953125 -2.171875 1.5q-1.25 0.53125 -2.71875 0.53125zm0 -1.515625q1.453125 0 2.640625 -0.6875q1.1875 -0.6875 1.890625 -1.921875q0.703125 -1.25 0.703125 -2.84375q0 -1.625 -0.703125 -2.859375q-0.703125 -1.234375 -1.890625 -1.921875q-1.1875 -0.6875 -2.640625 -0.6875q-1.4375 0 -2.640625 0.6875q-1.1875 0.6875 -1.90625 1.921875q-0.703125 1.234375 -0.703125 2.859375q0 1.59375 0.703125 2.84375q0.71875 1.234375 1.90625 1.921875q1.203125 0.6875 2.640625 0.6875zm8.857132 5.25l0 -13.546875l1.515625 0l0 1.421875l0.078125 0q0.25 -0.453125 0.71875 -0.84375q0.484375 -0.390625 1.125 -0.625q0.640625 -0.25 1.390625 -0.25q1.3125 0 2.328125 0.65625q1.03125 0.65625 1.625 1.796875q0.609375 1.125 0.609375 2.609375q0 1.46875 -0.609375 2.609375q-0.59375 1.140625 -1.625 1.796875q-1.015625 0.640625 -2.328125 0.640625q-1.125 0 -1.984375 -0.515625q-0.859375 -0.53125 -1.25 -1.1875l-0.078125 0l0.078125 1.3125l0 4.125l-1.59375 0zm4.671875 -5.171875q0.8125 0 1.53125 -0.4375q0.71875 -0.4375 1.15625 -1.25q0.4375 -0.828125 0.4375 -1.921875q0 -1.125 -0.4375 -1.9375q-0.4375 -0.8125 -1.15625 -1.25q-0.71875 -0.4375 -1.53125 -0.4375q-0.828125 0 -1.546875 0.4375q-0.71875 0.4375 -1.171875 1.25q-0.4375 0.8125 -0.4375 1.9375q0 1.109375 0.4375 1.921875q0.453125 0.8125 1.171875 1.25q0.71875 0.4375 1.546875 0.4375zm10.793564 1.4375q-1.375 0 -2.453125 -0.640625q-1.0625 -0.65625 -1.671875 -1.796875q-0.609375 -1.140625 -0.609375 -2.59375q0 -1.359375 0.5625 -2.515625q0.578125 -1.15625 1.609375 -1.859375q1.03125 -0.703125 2.4375 -0.703125q1.421875 0 2.4375 0.625q1.015625 0.625 1.5625 1.734375q0.546875 1.09375 0.546875 2.515625q0 0.125 -0.015625 0.265625q0 0.125 -0.015625 0.21875l-8.1875 0l0 -1.3125l6.546875 0q-0.015625 -0.390625 -0.1875 -0.84375q-0.15625 -0.46875 -0.5 -0.859375q-0.34375 -0.40625 -0.875 -0.65625q-0.53125 -0.25 -1.3125 -0.25q-0.9375 0 -1.625 0.484375q-0.671875 0.46875 -1.046875 1.296875q-0.359375 0.8125 -0.359375 1.859375q0 1.203125 0.46875 2.015625q0.46875 0.796875 1.203125 1.1875q0.75 0.390625 1.546875 0.390625q1.046875 0 1.71875 -0.484375q0.6875 -0.5 1.09375 -1.234375l1.34375 0.65625q-0.5625 1.078125 -1.609375 1.796875q-1.03125 0.703125 -2.609375 0.703125zm6.2690887 -0.296875l0 -9.515625l1.515625 0l0 1.53125l0.078125 0q0.1875 -0.546875 0.625 -0.9375q0.4375 -0.40625 1.0 -0.640625q0.578125 -0.234375 1.125 -0.234375q0.4375 0 0.671875 0.046875q0.25 0.046875 0.453125 0.140625l0 1.71875q-0.296875 -0.15625 -0.640625 -0.21875q-0.34375 -0.078125 -0.703125 -0.078125q-0.6875 0 -1.265625 0.390625q-0.578125 0.390625 -0.921875 1.046875q-0.34375 0.65625 -0.34375 1.4375l0 5.3125l-1.59375 0zm9.669632 0.296875q-1.0625 0 -1.875 -0.40625q-0.796875 -0.40625 -1.25 -1.125q-0.453125 -0.71875 -0.453125 -1.640625q0 -1.046875 0.53125 -1.765625q0.546875 -0.71875 1.453125 -1.078125q0.921875 -0.359375 2.015625 -0.359375q0.640625 0 1.171875 0.109375q0.546875 0.09375 0.9375 0.234375q0.40625 0.140625 0.625 0.265625l0 -0.578125q0 -1.078125 -0.765625 -1.703125q-0.765625 -0.640625 -1.875 -0.640625q-0.78125 0 -1.46875 0.34375q-0.671875 0.34375 -1.0625 0.953125l-1.203125 -0.890625q0.375 -0.5625 0.9375 -0.96875q0.5625 -0.40625 1.28125 -0.625q0.71875 -0.234375 1.515625 -0.234375q1.9375 0 3.03125 1.03125q1.109375 1.015625 1.109375 2.75l0 6.03125l-1.5 0l0 -1.359375l-0.078125 0q-0.25 0.40625 -0.703125 0.796875q-0.4375 0.375 -1.046875 0.609375q-0.609375 0.25 -1.328125 0.25zm0.140625 -1.390625q0.828125 0 1.5 -0.40625q0.6875 -0.421875 1.09375 -1.109375q0.421875 -0.6875 0.421875 -1.515625q-0.4375 -0.296875 -1.078125 -0.484375q-0.640625 -0.1875 -1.40625 -0.1875q-1.359375 0 -2.0 0.5625q-0.640625 0.5625 -0.640625 1.375q0 0.78125 0.59375 1.28125q0.609375 0.484375 1.515625 0.484375zm6.7189636 1.09375l0 -9.515625l1.515625 0l0 1.40625l0.078125 0q0.375 -0.703125 1.21875 -1.203125q0.84375 -0.5 1.859375 -0.5q1.75 0 2.625 1.015625q0.890625 1.015625 0.890625 2.703125l0 6.09375l-1.578125 0l0 -5.859375q0 -1.375 -0.671875 -1.9375q-0.65625 -0.578125 -1.703125 -0.578125q-0.78125 0 -1.375 0.4375q-0.59375 0.4375 -0.9375 1.125q-0.328125 0.6875 -0.328125 1.453125l0 5.359375l-1.59375 0zm14.513031 0.296875q-1.28125 0 -2.328125 -0.640625q-1.03125 -0.65625 -1.625 -1.796875q-0.59375 -1.140625 -0.59375 -2.609375q0 -1.484375 0.59375 -2.609375q0.59375 -1.140625 1.625 -1.796875q1.046875 -0.65625 2.328125 -0.65625q0.765625 0 1.390625 0.25q0.640625 0.234375 1.109375 0.625q0.484375 0.390625 0.75 0.84375l0.078125 0l-0.078125 -1.328125l0 -3.9375l1.59375 0l0 13.359375l-1.515625 0l0 -1.40625l-0.078125 0q-0.265625 0.4375 -0.75 0.828125q-0.46875 0.390625 -1.109375 0.625q-0.625 0.25 -1.390625 0.25zm0.171875 -1.4375q0.828125 0 1.546875 -0.4375q0.71875 -0.4375 1.15625 -1.25q0.453125 -0.8125 0.453125 -1.921875q0 -1.125 -0.453125 -1.9375q-0.4375 -0.8125 -1.15625 -1.25q-0.71875 -0.4375 -1.546875 -0.4375q-0.8125 0 -1.53125 0.4375q-0.71875 0.4375 -1.171875 1.25q-0.453125 0.8125 -0.453125 1.9375q0 1.09375 0.453125 1.921875q0.453125 0.8125 1.171875 1.25q0.71875 0.4375 1.53125 0.4375zm5.871689 1.140625l4.078125 -13.359375l1.453125 0l-4.0625 13.359375l-1.46875 0zm12.879791 0.296875q-1.46875 0 -2.71875 -0.53125q-1.25 -0.546875 -2.1875 -1.5q-0.921875 -0.96875 -1.4375 -2.21875q-0.5 -1.265625 -0.5 -2.71875q0 -1.46875 0.5 -2.71875q0.515625 -1.265625 1.4375 -2.21875q0.9375 -0.96875 2.1875 -1.5q1.25 -0.546875 2.71875 -0.546875q1.46875 0 2.71875 0.546875q1.25 0.53125 2.171875 1.5q0.921875 0.953125 1.4375 2.21875q0.515625 1.25 0.515625 2.71875q0 1.453125 -0.515625 2.71875q-0.515625 1.25 -1.4375 2.21875q-0.921875 0.953125 -2.171875 1.5q-1.25 0.53125 -2.71875 0.53125zm0 -1.515625q1.453125 0 2.640625 -0.6875q1.1875 -0.6875 1.890625 -1.921875q0.703125 -1.25 0.703125 -2.84375q0 -1.625 -0.703125 -2.859375q-0.703125 -1.234375 -1.890625 -1.921875q-1.1875 -0.6875 -2.640625 -0.6875q-1.4375 0 -2.640625 0.6875q-1.1875 0.6875 -1.90625 1.921875q-0.703125 1.234375 -0.703125 2.859375q0 1.59375 0.703125 2.84375q0.71875 1.234375 1.90625 1.921875q1.203125 0.6875 2.640625 0.6875zm8.857132 5.25l0 -13.546875l1.515625 0l0 1.421875l0.078125 0q0.25 -0.453125 0.71875 -0.84375q0.484375 -0.390625 1.125 -0.625q0.640625 -0.25 1.390625 -0.25q1.3125 0 2.328125 0.65625q1.03125 0.65625 1.625 1.796875q0.609375 1.125 0.609375 2.609375q0 1.46875 -0.609375 2.609375q-0.59375 1.140625 -1.625 1.796875q-1.015625 0.640625 -2.328125 0.640625q-1.125 0 -1.984375 -0.515625q-0.859375 -0.53125 -1.25 -1.1875l-0.078125 0l0.078125 1.3125l0 4.125l-1.59375 0zm4.671875 -5.171875q0.8125 0 1.53125 -0.4375q0.71875 -0.4375 1.15625 -1.25q0.4375 -0.828125 0.4375 -1.921875q0 -1.125 -0.4375 -1.9375q-0.4375 -0.8125 -1.15625 -1.25q-0.71875 -0.4375 -1.53125 -0.4375q-0.828125 0 -1.546875 0.4375q-0.71875 0.4375 -1.171875 1.25q-0.4375 0.8125 -0.4375 1.9375q0 1.109375 0.4375 1.921875q0.453125 0.8125 1.171875 1.25q0.71875 0.4375 1.546875 0.4375zm6.887314 1.140625l0 -13.359375l4.5 0q1.125 0 2.0625 0.515625q0.953125 0.5 1.515625 1.390625q0.578125 0.875 0.578125 2.046875q0 0.71875 -0.265625 1.421875q-0.265625 0.6875 -0.8125 1.265625q-0.546875 0.578125 -1.40625 0.921875q-0.84375 0.34375 -2.015625 0.34375l-3.328125 0l0 -1.46875l3.578125 0q0.703125 0 1.296875 -0.3125q0.59375 -0.328125 0.96875 -0.875q0.375 -0.5625 0.375 -1.296875q0 -0.59375 -0.3125 -1.15625q-0.3125 -0.5625 -0.875 -0.921875q-0.546875 -0.359375 -1.328125 -0.359375l-2.953125 0l0 11.84375l-1.578125 0zm3.21875 -6.125l1.734375 -0.09375l4.21875 6.140625l0 0.078125l-1.859375 0l-4.09375 -6.125zm11.433411 6.421875q-1.375 0 -2.453125 -0.640625q-1.0625 -0.65625 -1.671875 -1.796875q-0.609375 -1.140625 -0.609375 -2.59375q0 -1.359375 0.5625 -2.515625q0.578125 -1.15625 1.609375 -1.859375q1.03125 -0.703125 2.4375 -0.703125q1.421875 0 2.4375 0.625q1.015625 0.625 1.5625 1.734375q0.546875 1.09375 0.546875 2.515625q0 0.125 -0.015625 0.265625q0 0.125 -0.015625 0.21875l-8.1875 0l0 -1.3125l6.546875 0q-0.015625 -0.390625 -0.1875 -0.84375q-0.15625 -0.46875 -0.5 -0.859375q-0.34375 -0.40625 -0.875 -0.65625q-0.53125 -0.25 -1.3125 -0.25q-0.9375 0 -1.625 0.484375q-0.671875 0.46875 -1.046875 1.296875q-0.359375 0.8125 -0.359375 1.859375q0 1.203125 0.46875 2.015625q0.46875 0.796875 1.203125 1.1875q0.75 0.390625 1.546875 0.390625q1.046875 0 1.71875 -0.484375q0.6875 -0.5 1.09375 -1.234375l1.34375 0.65625q-0.5625 1.078125 -1.609375 1.796875q-1.03125 0.703125 -2.609375 0.703125zm9.690552 0q-1.0625 0 -1.875 -0.34375q-0.8125 -0.34375 -1.34375 -0.921875q-0.53125 -0.59375 -0.796875 -1.28125l1.421875 -0.640625q0.375 0.859375 1.078125 1.328125q0.703125 0.46875 1.625 0.46875q0.875 0 1.453125 -0.359375q0.59375 -0.359375 0.59375 -1.046875q0 -0.421875 -0.25 -0.703125q-0.234375 -0.296875 -0.703125 -0.5q-0.453125 -0.21875 -1.125 -0.375l-1.15625 -0.3125q-0.671875 -0.1875 -1.28125 -0.515625q-0.59375 -0.34375 -0.953125 -0.875q-0.359375 -0.53125 -0.359375 -1.296875q0 -0.84375 0.5 -1.453125q0.5 -0.625 1.3125 -0.953125q0.828125 -0.328125 1.765625 -0.328125q0.8125 0 1.53125 0.234375q0.71875 0.234375 1.265625 0.6875q0.546875 0.453125 0.8125 1.125l-1.375 0.640625q-0.359375 -0.703125 -0.953125 -0.984375q-0.59375 -0.28125 -1.328125 -0.28125q-0.78125 0 -1.359375 0.34375q-0.578125 0.34375 -0.578125 0.9375q0 0.59375 0.46875 0.90625q0.484375 0.296875 1.171875 0.46875l1.390625 0.359375q1.390625 0.359375 2.09375 1.0625q0.71875 0.6875 0.71875 1.703125q0 0.890625 -0.515625 1.546875q-0.5 0.65625 -1.359375 1.015625q-0.84375 0.34375 -1.890625 0.34375zm8.949402 0q-1.75 0 -2.640625 -1.015625q-0.890625 -1.03125 -0.890625 -2.8125l0 -5.984375l1.59375 0l0 5.75q0 1.421875 0.65625 2.03125q0.65625 0.59375 1.625 0.59375q0.828125 0 1.4375 -0.4375q0.625 -0.4375 0.953125 -1.125q0.34375 -0.6875 0.34375 -1.4375l0 -5.375l1.59375 0l0 9.515625l-1.515625 0l0 -1.375l-0.078125 0q-0.234375 0.4375 -0.71875 0.828125q-0.46875 0.375 -1.078125 0.609375q-0.609375 0.234375 -1.28125 0.234375zm7.013031 -0.296875l0 -13.359375l1.59375 0l0 13.359375l-1.59375 0zm3.3735504 -9.515625l5.578125 0l0 1.4375l-5.578125 0l0 -1.4375zm1.671875 7.015625l0 -9.703125l1.578125 0l0 9.3125q0 0.75 0.3125 1.15625q0.3125 0.40625 1.015625 0.40625q0.3125 0 0.578125 -0.09375q0.265625 -0.09375 0.46875 -0.21875l0 1.546875q-0.25 0.109375 -0.546875 0.171875q-0.28125 0.078125 -0.765625 0.078125q-1.1875 0 -1.921875 -0.703125q-0.71875 -0.703125 -0.71875 -1.953125zm10.122162 6.53125l0 -13.546875l1.515625 0l0 1.421875l0.078125 0q0.25 -0.453125 0.71875 -0.84375q0.484375 -0.390625 1.125 -0.625q0.640625 -0.25 1.390625 -0.25q1.3125 0 2.328125 0.65625q1.03125 0.65625 1.625 1.796875q0.609375 1.125 0.609375 2.609375q0 1.46875 -0.609375 2.609375q-0.59375 1.140625 -1.625 1.796875q-1.015625 0.640625 -2.328125 0.640625q-1.125 0 -1.984375 -0.515625q-0.859375 -0.53125 -1.25 -1.1875l-0.078125 0l0.078125 1.3125l0 4.125l-1.59375 0zm4.671875 -5.171875q0.8125 0 1.53125 -0.4375q0.71875 -0.4375 1.15625 -1.25q0.4375 -0.828125 0.4375 -1.921875q0 -1.125 -0.4375 -1.9375q-0.4375 -0.8125 -1.15625 -1.25q-0.71875 -0.4375 -1.53125 -0.4375q-0.828125 0 -1.546875 0.4375q-0.71875 0.4375 -1.171875 1.25q-0.4375 0.8125 -0.4375 1.9375q0 1.109375 0.4375 1.921875q0.453125 0.8125 1.171875 1.25q0.71875 0.4375 1.546875 0.4375zm9.606064 1.4375q-1.0625 0 -1.875 -0.40625q-0.796875 -0.40625 -1.25 -1.125q-0.453125 -0.71875 -0.453125 -1.640625q0 -1.046875 0.53125 -1.765625q0.546875 -0.71875 1.453125 -1.078125q0.921875 -0.359375 2.015625 -0.359375q0.640625 0 1.171875 0.109375q0.546875 0.09375 0.9375 0.234375q0.40625 0.140625 0.625 0.265625l0 -0.578125q0 -1.078125 -0.765625 -1.703125q-0.765625 -0.640625 -1.875 -0.640625q-0.78125 0 -1.46875 0.34375q-0.671875 0.34375 -1.0625 0.953125l-1.203125 -0.890625q0.375 -0.5625 0.9375 -0.96875q0.5625 -0.40625 1.28125 -0.625q0.71875 -0.234375 1.515625 -0.234375q1.9375 0 3.03125 1.03125q1.109375 1.015625 1.109375 2.75l0 6.03125l-1.5 0l0 -1.359375l-0.078125 0q-0.25 0.40625 -0.703125 0.796875q-0.4375 0.375 -1.046875 0.609375q-0.609375 0.25 -1.328125 0.25zm0.140625 -1.390625q0.828125 0 1.5 -0.40625q0.6875 -0.421875 1.09375 -1.109375q0.421875 -0.6875 0.421875 -1.515625q-0.4375 -0.296875 -1.078125 -0.484375q-0.640625 -0.1875 -1.40625 -0.1875q-1.359375 0 -2.0 0.5625q-0.640625 0.5625 -0.640625 1.375q0 0.78125 0.59375 1.28125q0.609375 0.484375 1.515625 0.484375zm6.8751984 1.09375l0 -9.515625l1.578125 0l0 9.515625l-1.578125 0zm0.78125 -11.265625q-0.46875 0 -0.8125 -0.328125q-0.328125 -0.34375 -0.328125 -0.8125q0 -0.484375 0.328125 -0.8125q0.34375 -0.328125 0.8125 -0.328125q0.484375 0 0.8125 0.328125q0.328125 0.328125 0.328125 0.8125q0 0.46875 -0.328125 0.8125q-0.328125 0.328125 -0.8125 0.328125zm3.2788086 11.265625l0 -9.515625l1.515625 0l0 1.53125l0.078125 0q0.1875 -0.546875 0.625 -0.9375q0.4375 -0.40625 1.0 -0.640625q0.578125 -0.234375 1.125 -0.234375q0.4375 0 0.671875 0.046875q0.25 0.046875 0.453125 0.140625l0 1.71875q-0.296875 -0.15625 -0.640625 -0.21875q-0.34375 -0.078125 -0.703125 -0.078125q-0.6875 0 -1.265625 0.390625q-0.578125 0.390625 -0.921875 1.046875q-0.34375 0.65625 -0.34375 1.4375l0 5.3125l-1.59375 0z" fill-rule="nonzero"/><path fill="#000000" fill-opacity="0.0" d="m114.61155 124.00787l-11.527557 -43.244095" fill-rule="evenodd"/><path stroke="#ff0000" stroke-width="1.0" stroke-linejoin="round" stroke-linecap="butt" d="m114.61155 124.00787l-9.982109 -37.44654" fill-rule="evenodd"/><path fill="#ff0000" stroke="#ff0000" stroke-width="1.0" stroke-linecap="butt" d="m106.22544 86.13589l-2.7649002 -3.9595337l-0.42710114 4.810417z" fill-rule="evenodd"/><path fill="#000000" fill-opacity="0.0" d="m51.220474 125.220474l604.50397 0l0 32.72441l-604.50397 0z" fill-rule="evenodd"/><path fill="#000000" d="m60.845474 152.14047l2.78125 -13.359375l1.65625 0l-1.0 4.78125q0.78125 -0.71875 1.421875 -1.015625q0.640625 -0.296875 1.328125 -0.296875q1.359375 0 2.265625 1.015625q0.90625 1.0 0.90625 2.9375q0 1.28125 -0.375 2.359375q-0.359375 1.0625 -0.890625 1.78125q-0.53125 0.71875 -1.109375 1.15625q-0.578125 0.4375 -1.1875 0.640625q-0.59375 0.21875 -1.140625 0.21875q-0.96875 0 -1.703125 -0.5q-0.71875 -0.515625 -1.125 -1.546875l-0.390625 1.828125l-1.4375 0zm2.4375 -3.96875l-0.015625 0.3125q0 1.234375 0.59375 1.890625q0.59375 0.640625 1.484375 0.640625q0.859375 0 1.578125 -0.609375q0.734375 -0.609375 1.1875 -1.890625q0.46875 -1.28125 0.46875 -2.375q0 -1.21875 -0.59375 -1.890625q-0.578125 -0.671875 -1.4375 -0.671875q-0.90625 0 -1.65625 0.6875q-0.734375 0.6875 -1.234375 2.125q-0.375 1.0625 -0.375 1.78125zm14.531967 2.21875q-1.734375 1.96875 -3.5625 1.96875q-1.109375 0 -1.796875 -0.640625q-0.6875 -0.640625 -0.6875 -1.578125q0 -0.609375 0.296875 -2.09375l1.171875 -5.578125l1.65625 0l-1.296875 6.1875q-0.171875 0.765625 -0.171875 1.203125q0 0.546875 0.328125 0.859375q0.34375 0.296875 0.984375 0.296875q0.703125 0 1.359375 -0.328125q0.65625 -0.34375 1.125 -0.921875q0.484375 -0.578125 0.796875 -1.359375q0.1875 -0.5 0.453125 -1.765625l0.875 -4.171875l1.65625 0l-2.03125 9.671875l-1.515625 0l0.359375 -1.75zm4.000717 1.75l1.765625 -8.40625l-1.484375 0l0.265625 -1.265625l1.484375 0l0.28125 -1.375q0.21875 -1.03125 0.4375 -1.484375q0.234375 -0.453125 0.75 -0.75q0.53125 -0.296875 1.4375 -0.296875q0.625 0 1.828125 0.265625l-0.296875 1.4375q-0.84375 -0.21875 -1.40625 -0.21875q-0.484375 0 -0.734375 0.25q-0.25 0.234375 -0.4375 1.125l-0.21875 1.046875l1.84375 0l-0.265625 1.265625l-1.84375 0l-1.75 8.40625l-1.65625 0zm5.183304 0l1.765625 -8.40625l-1.484375 0l0.265625 -1.265625l1.484375 0l0.28125 -1.375q0.21875 -1.03125 0.4375 -1.484375q0.234375 -0.453125 0.75 -0.75q0.53125 -0.296875 1.4375 -0.296875q0.625 0 1.828125 0.265625l-0.296875 1.4375q-0.84375 -0.21875 -1.40625 -0.21875q-0.484375 0 -0.734375 0.25q-0.25 0.234375 -0.4375 1.125l-0.21875 1.046875l1.84375 0l-0.265625 1.265625l-1.84375 0l-1.75 8.40625l-1.65625 0zm12.058304 -3.28125l1.609375 0.15625q-0.34375 1.1875 -1.59375 2.265625q-1.234375 1.078125 -2.96875 1.078125q-1.0625 0 -1.96875 -0.5q-0.890625 -0.5 -1.359375 -1.4375q-0.46875 -0.953125 -0.46875 -2.15625q0 -1.59375 0.734375 -3.078125q0.734375 -1.484375 1.890625 -2.203125q1.171875 -0.734375 2.53125 -0.734375q1.734375 0 2.765625 1.078125q1.03125 1.0625 1.03125 2.921875q0 0.71875 -0.125 1.46875l-7.125 0q-0.046875 0.28125 -0.046875 0.5q0 1.359375 0.625 2.078125q0.625 0.71875 1.53125 0.71875q0.84375 0 1.65625 -0.546875q0.828125 -0.5625 1.28125 -1.609375zm-4.78125 -2.40625l5.421875 0q0.015625 -0.25 0.015625 -0.359375q0 -1.234375 -0.625 -1.890625q-0.625 -0.671875 -1.59375 -0.671875q-1.0625 0 -1.9375 0.734375q-0.859375 0.71875 -1.28125 2.1875zm8.063217 5.6875l2.015625 -9.671875l1.453125 0l-0.40625 1.96875q0.75 -1.109375 1.453125 -1.640625q0.71875 -0.546875 1.46875 -0.546875q0.5 0 1.21875 0.359375l-0.671875 1.53125q-0.4375 -0.3125 -0.9375 -0.3125q-0.875 0 -1.78125 0.96875q-0.90625 0.953125 -1.4375 3.46875l-0.8125 3.875l-1.5625 0z" fill-rule="nonzero"/><path fill="#000000" d="m112.286285 156.06235q-1.359375 -1.703125 -2.296875 -4.0q-0.9375 -2.296875 -0.9375 -4.765625q0 -2.15625 0.703125 -4.140625q0.828125 -2.3125 2.53125 -4.59375l1.171875 0q-1.09375 1.890625 -1.453125 2.703125q-0.546875 1.25 -0.875 2.625q-0.390625 1.703125 -0.390625 3.421875q0 4.375 2.71875 8.75l-1.171875 0z" fill-rule="nonzero"/><path fill="#000000" d="m124.21771 139.26547l-8.40625 12.875l-1.484375 0l8.375 -12.875l1.515625 0zm-4.859375 2.546875q0 0.59375 -0.171875 1.109375q-0.171875 0.5 -0.5 0.875q-0.3125 0.359375 -0.78125 0.578125q-0.453125 0.21875 -1.03125 0.21875q-0.546875 0 -1.0 -0.171875q-0.4375 -0.171875 -0.75 -0.515625q-0.3125 -0.34375 -0.484375 -0.84375q-0.15625 -0.5 -0.15625 -1.15625q0 -0.59375 0.171875 -1.09375q0.171875 -0.5 0.484375 -0.875q0.328125 -0.375 0.78125 -0.578125q0.46875 -0.21875 1.03125 -0.21875q0.5625 0 1.0 0.171875q0.4375 0.171875 0.75 0.515625q0.3125 0.328125 0.484375 0.828125q0.171875 0.5 0.171875 1.15625zm-1.34375 0.046875q0 -0.796875 -0.296875 -1.171875q-0.28125 -0.390625 -0.796875 -0.390625q-0.265625 0 -0.46875 0.125q-0.203125 0.109375 -0.34375 0.328125q-0.140625 0.203125 -0.21875 0.5q-0.078125 0.28125 -0.078125 0.609375q0 0.8125 0.296875 1.203125q0.296875 0.375 0.8125 0.375q0.265625 0 0.46875 -0.125q0.203125 -0.125 0.34375 -0.328125q0.140625 -0.203125 0.203125 -0.484375q0.078125 -0.296875 0.078125 -0.640625zm6.046875 7.65625q0 0.578125 -0.171875 1.09375q-0.171875 0.5 -0.5 0.875q-0.328125 0.359375 -0.796875 0.578125q-0.453125 0.203125 -1.015625 0.203125q-0.546875 0 -1.0 -0.171875q-0.4375 -0.171875 -0.75 -0.5q-0.3125 -0.34375 -0.484375 -0.84375q-0.171875 -0.515625 -0.171875 -1.171875q0 -0.578125 0.171875 -1.078125q0.1875 -0.515625 0.5 -0.890625q0.328125 -0.375 0.78125 -0.578125q0.46875 -0.203125 1.03125 -0.203125q0.5625 0 1.0 0.171875q0.453125 0.171875 0.765625 0.515625q0.3125 0.328125 0.46875 0.84375q0.171875 0.5 0.171875 1.15625zm-1.328125 0.03125q0 -0.796875 -0.296875 -1.171875q-0.296875 -0.390625 -0.8125 -0.390625q-0.265625 0 -0.46875 0.125q-0.203125 0.109375 -0.359375 0.328125q-0.140625 0.203125 -0.21875 0.484375q-0.0625 0.28125 -0.0625 0.625q0 0.796875 0.28125 1.1875q0.296875 0.375 0.828125 0.375q0.265625 0 0.46875 -0.109375q0.203125 -0.125 0.34375 -0.328125q0.140625 -0.21875 0.21875 -0.5q0.078125 -0.296875 0.078125 -0.625zm3.4916687 -6.546875l1.453125 0l0.046875 1.6875q0.8125 -0.984375 1.59375 -1.421875q0.796875 -0.4375 1.59375 -0.4375q1.421875 0 2.15625 0.921875q0.734375 0.921875 0.671875 2.734375l-1.59375 0q0.015625 -1.203125 -0.359375 -1.734375q-0.375 -0.546875 -1.109375 -0.546875q-0.3125 0 -0.640625 0.109375q-0.328125 0.109375 -0.671875 0.359375q-0.328125 0.25 -0.71875 0.640625q-0.375 0.390625 -0.8125 0.953125l0 5.875l-1.609375 0l0 -9.140625z" fill-rule="nonzero"/><path fill="#000000" d="m136.96667 156.06235l-1.1875 0q2.734375 -4.375 2.734375 -8.75q0 -1.71875 -0.390625 -3.390625q-0.3125 -1.375 -0.875 -2.625q-0.359375 -0.828125 -1.46875 -2.734375l1.1875 0q1.703125 2.28125 2.53125 4.59375q0.6875 1.984375 0.6875 4.140625q0 2.46875 -0.9375 4.765625q-0.9375 2.296875 -2.28125 4.0zm10.770981 -11.734375l0 -1.859375l1.859375 0l0 1.859375l-1.859375 0zm0 7.8125l0 -1.875l1.859375 0l0 1.875l-1.859375 0zm13.355179 -7.859375l-8.828125 0l0 -1.515625l8.828125 0l0 1.515625zm0 4.0625l-8.828125 0l0 -1.53125l8.828125 0l0 1.53125z" fill-rule="nonzero"/><path fill="#000000" d="m167.93672 152.14047l2.78125 -13.359375l1.65625 0l-1.0 4.78125q0.78125 -0.71875 1.421875 -1.015625q0.640625 -0.296875 1.328125 -0.296875q1.359375 0 2.265625 1.015625q0.90625 1.0 0.90625 2.9375q0 1.28125 -0.375 2.359375q-0.359375 1.0625 -0.890625 1.78125q-0.53125 0.71875 -1.109375 1.15625q-0.578125 0.4375 -1.1875 0.640625q-0.59375 0.21875 -1.140625 0.21875q-0.96875 0 -1.703125 -0.5q-0.71875 -0.515625 -1.125 -1.546875l-0.390625 1.828125l-1.4375 0zm2.4375 -3.96875l-0.015625 0.3125q0 1.234375 0.59375 1.890625q0.59375 0.640625 1.484375 0.640625q0.859375 0 1.578125 -0.609375q0.734375 -0.609375 1.1875 -1.890625q0.46875 -1.28125 0.46875 -2.375q0 -1.21875 -0.59375 -1.890625q-0.578125 -0.671875 -1.4375 -0.671875q-0.90625 0 -1.65625 0.6875q-0.734375 0.6875 -1.234375 2.125q-0.375 1.0625 -0.375 1.78125zm14.531967 2.21875q-1.734375 1.96875 -3.5625 1.96875q-1.109375 0 -1.796875 -0.640625q-0.6875 -0.640625 -0.6875 -1.578125q0 -0.609375 0.296875 -2.09375l1.171875 -5.578125l1.65625 0l-1.296875 6.1875q-0.171875 0.765625 -0.171875 1.203125q0 0.546875 0.328125 0.859375q0.34375 0.296875 0.984375 0.296875q0.703125 0 1.359375 -0.328125q0.65625 -0.34375 1.125 -0.921875q0.484375 -0.578125 0.796875 -1.359375q0.1875 -0.5 0.453125 -1.765625l0.875 -4.171875l1.65625 0l-2.03125 9.671875l-1.515625 0l0.359375 -1.75zm4.000717 1.75l1.765625 -8.40625l-1.484375 0l0.265625 -1.265625l1.484375 0l0.28125 -1.375q0.21875 -1.03125 0.4375 -1.484375q0.234375 -0.453125 0.75 -0.75q0.53125 -0.296875 1.4375 -0.296875q0.625 0 1.828125 0.265625l-0.296875 1.4375q-0.84375 -0.21875 -1.40625 -0.21875q-0.484375 0 -0.734375 0.25q-0.25 0.234375 -0.4375 1.125l-0.21875 1.046875l1.84375 0l-0.265625 1.265625l-1.84375 0l-1.75 8.40625l-1.65625 0zm5.183304 0l1.765625 -8.40625l-1.484375 0l0.265625 -1.265625l1.484375 0l0.28125 -1.375q0.21875 -1.03125 0.4375 -1.484375q0.234375 -0.453125 0.75 -0.75q0.53125 -0.296875 1.4375 -0.296875q0.625 0 1.828125 0.265625l-0.296875 1.4375q-0.84375 -0.21875 -1.40625 -0.21875q-0.484375 0 -0.734375 0.25q-0.25 0.234375 -0.4375 1.125l-0.21875 1.046875l1.84375 0l-0.265625 1.265625l-1.84375 0l-1.75 8.40625l-1.65625 0zm12.058304 -3.28125l1.609375 0.15625q-0.34375 1.1875 -1.59375 2.265625q-1.234375 1.078125 -2.96875 1.078125q-1.0625 0 -1.96875 -0.5q-0.890625 -0.5 -1.359375 -1.4375q-0.46875 -0.953125 -0.46875 -2.15625q0 -1.59375 0.734375 -3.078125q0.734375 -1.484375 1.890625 -2.203125q1.171875 -0.734375 2.53125 -0.734375q1.734375 0 2.765625 1.078125q1.03125 1.0625 1.03125 2.921875q0 0.71875 -0.125 1.46875l-7.125 0q-0.046875 0.28125 -0.046875 0.5q0 1.359375 0.625 2.078125q0.625 0.71875 1.53125 0.71875q0.84375 0 1.65625 -0.546875q0.828125 -0.5625 1.28125 -1.609375zm-4.78125 -2.40625l5.421875 0q0.015625 -0.25 0.015625 -0.359375q0 -1.234375 -0.625 -1.890625q-0.625 -0.671875 -1.59375 -0.671875q-1.0625 0 -1.9375 0.734375q-0.859375 0.71875 -1.28125 2.1875zm8.063217 5.6875l2.015625 -9.671875l1.453125 0l-0.40625 1.96875q0.75 -1.109375 1.453125 -1.640625q0.71875 -0.546875 1.46875 -0.546875q0.5 0 1.21875 0.359375l-0.671875 1.53125q-0.4375 -0.3125 -0.9375 -0.3125q-0.875 0 -1.78125 0.96875q-0.90625 0.953125 -1.4375 3.46875l-0.8125 3.875l-1.5625 0z" fill-rule="nonzero"/><path fill="#000000" d="m219.37753 156.06235q-1.359375 -1.703125 -2.296875 -4.0q-0.9375 -2.296875 -0.9375 -4.765625q0 -2.15625 0.703125 -4.140625q0.828125 -2.3125 2.53125 -4.59375l1.171875 0q-1.09375 1.890625 -1.453125 2.703125q-0.546875 1.25 -0.875 2.625q-0.390625 1.703125 -0.390625 3.421875q0 4.375 2.71875 8.75l-1.171875 0z" fill-rule="nonzero"/><path fill="#000000" d="m231.30896 139.26547l-8.40625 12.875l-1.484375 0l8.375 -12.875l1.515625 0zm-4.859375 2.546875q0 0.59375 -0.171875 1.109375q-0.171875 0.5 -0.5 0.875q-0.3125 0.359375 -0.78125 0.578125q-0.453125 0.21875 -1.03125 0.21875q-0.546875 0 -1.0 -0.171875q-0.4375 -0.171875 -0.75 -0.515625q-0.3125 -0.34375 -0.484375 -0.84375q-0.15625 -0.5 -0.15625 -1.15625q0 -0.59375 0.171875 -1.09375q0.171875 -0.5 0.484375 -0.875q0.328125 -0.375 0.78125 -0.578125q0.46875 -0.21875 1.03125 -0.21875q0.5625 0 1.0 0.171875q0.4375 0.171875 0.75 0.515625q0.3125 0.328125 0.484375 0.828125q0.171875 0.5 0.171875 1.15625zm-1.34375 0.046875q0 -0.796875 -0.296875 -1.171875q-0.28125 -0.390625 -0.796875 -0.390625q-0.265625 0 -0.46875 0.125q-0.203125 0.109375 -0.34375 0.328125q-0.140625 0.203125 -0.21875 0.5q-0.078125 0.28125 -0.078125 0.609375q0 0.8125 0.296875 1.203125q0.296875 0.375 0.8125 0.375q0.265625 0 0.46875 -0.125q0.203125 -0.125 0.34375 -0.328125q0.140625 -0.203125 0.203125 -0.484375q0.078125 -0.296875 0.078125 -0.640625zm6.046875 7.65625q0 0.578125 -0.171875 1.09375q-0.171875 0.5 -0.5 0.875q-0.328125 0.359375 -0.796875 0.578125q-0.453125 0.203125 -1.015625 0.203125q-0.546875 0 -1.0 -0.171875q-0.4375 -0.171875 -0.75 -0.5q-0.3125 -0.34375 -0.484375 -0.84375q-0.171875 -0.515625 -0.171875 -1.171875q0 -0.578125 0.171875 -1.078125q0.1875 -0.515625 0.5 -0.890625q0.328125 -0.375 0.78125 -0.578125q0.46875 -0.203125 1.03125 -0.203125q0.5625 0 1.0 0.171875q0.453125 0.171875 0.765625 0.515625q0.3125 0.328125 0.46875 0.84375q0.171875 0.5 0.171875 1.15625zm-1.328125 0.03125q0 -0.796875 -0.296875 -1.171875q-0.296875 -0.390625 -0.8125 -0.390625q-0.265625 0 -0.46875 0.125q-0.203125 0.109375 -0.359375 0.328125q-0.140625 0.203125 -0.21875 0.484375q-0.0625 0.28125 -0.0625 0.625q0 0.796875 0.28125 1.1875q0.296875 0.375 0.828125 0.375q0.265625 0 0.46875 -0.109375q0.203125 -0.125 0.34375 -0.328125q0.140625 -0.21875 0.21875 -0.5q0.078125 -0.296875 0.078125 -0.625zm10.491669 2.46875q-0.53125 0.140625 -1.109375 0.1875q-0.578125 0.0625 -1.171875 0.0625q-1.71875 0 -2.5625 -0.78125q-0.84375 -0.78125 -0.84375 -2.390625l0 -4.765625l-2.5625 0l0 -1.328125l2.5625 0l0 -2.515625l1.578125 -0.40625l0 2.921875l4.109375 0l0 1.328125l-4.109375 0l0 4.640625q0 0.984375 0.515625 1.46875q0.53125 0.484375 1.546875 0.484375q0.4375 0 0.953125 -0.0625q0.53125 -0.0625 1.09375 -0.21875l0 1.375z" fill-rule="nonzero"/><path fill="#000000" d="m244.05792 156.06235l-1.1875 0q2.734375 -4.375 2.734375 -8.75q0 -1.71875 -0.390625 -3.390625q-0.3125 -1.375 -0.875 -2.625q-0.359375 -0.828125 -1.46875 -2.734375l1.1875 0q1.703125 2.28125 2.53125 4.59375q0.6875 1.984375 0.6875 4.140625q0 2.46875 -0.9375 4.765625q-0.9375 2.296875 -2.28125 4.0zm9.708481 -8.765625q0 -2.6875 1.484375 -3.96875q1.2499847 -1.078125 3.0468597 -1.078125q2.0 0 3.265625 1.3125q1.265625 1.296875 1.265625 3.609375q0 1.859375 -0.5625 2.9375q-0.5625 1.0625 -1.640625 1.65625q-1.0625 0.59375 -2.328125 0.59375q-2.03125 0 -3.2812347 -1.296875q-1.25 -1.3125 -1.25 -3.765625zm1.6875 0q0 1.859375 0.79685974 2.796875q0.8125 0.921875 2.046875 0.921875q1.21875 0 2.03125 -0.921875q0.8125 -0.9375 0.8125 -2.84375q0 -1.796875 -0.8125 -2.71875q-0.8125 -0.921875 -2.03125 -0.921875q-1.234375 0 -2.046875 0.921875q-0.79685974 0.90625 -0.79685974 2.765625zm9.281967 4.84375l0 -9.671875l1.46875 0l0 1.46875q0.5625 -1.03125 1.03125 -1.359375q0.484375 -0.328125 1.0625 -0.328125q0.828125 0 1.6875 0.53125l-0.5625 1.515625q-0.609375 -0.359375 -1.203125 -0.359375q-0.546875 0 -0.96875 0.328125q-0.421875 0.328125 -0.609375 0.890625q-0.28125 0.875 -0.28125 1.921875l0 5.0625l-1.625 0zm11.411591 0l0 -9.671875l1.46875 0l0 1.375q1.0625 -1.59375 3.078125 -1.59375q0.875 0 1.609375 0.3125q0.734375 0.3125 1.09375 0.828125q0.375 0.5 0.515625 1.203125q0.09375 0.453125 0.09375 1.59375l0 5.953125l-1.640625 0l0 -5.890625q0 -1.0 -0.203125 -1.484375q-0.1875 -0.5 -0.671875 -0.796875q-0.484375 -0.296875 -1.140625 -0.296875q-1.046875 0 -1.8125 0.671875q-0.75 0.65625 -0.75 2.515625l0 5.28125l-1.640625 0zm17.000732 -3.109375l1.6875 0.203125q-0.40625 1.484375 -1.484375 2.3125q-1.078125 0.8125 -2.765625 0.8125q-2.125 0 -3.375 -1.296875q-1.234375 -1.3125 -1.234375 -3.671875q0 -2.453125 1.25 -3.796875q1.265625 -1.34375 3.265625 -1.34375q1.9375 0 3.15625 1.328125q1.234375 1.3125 1.234375 3.703125q0 0.15625 0 0.4375l-7.21875 0q0.09375 1.59375 0.90625 2.453125q0.8125 0.84375 2.015625 0.84375q0.90625 0 1.546875 -0.46875q0.640625 -0.484375 1.015625 -1.515625zm-5.390625 -2.65625l5.40625 0q-0.109375 -1.21875 -0.625 -1.828125q-0.78125 -0.953125 -2.03125 -0.953125q-1.125 0 -1.90625 0.765625q-0.765625 0.75 -0.84375 2.015625zm10.922577 5.765625l-2.96875 -9.671875l1.703125 0l1.53125 5.578125l0.578125 2.078125q0.046875 -0.15625 0.5 -2.0l1.546875 -5.65625l1.6875 0l1.4375 5.609375l0.484375 1.84375l0.5625 -1.859375l1.65625 -5.59375l1.59375 0l-3.03125 9.671875l-1.703125 0l-1.53125 -5.796875l-0.375 -1.640625l-1.953125 7.4375l-1.71875 0zm23.1875 -1.1875q-0.921875 0.765625 -1.765625 1.09375q-0.828125 0.3125 -1.796875 0.3125q-1.59375 0 -2.453125 -0.78125q-0.859375 -0.78125 -0.859375 -1.984375q0 -0.71875 0.328125 -1.296875q0.328125 -0.59375 0.84375 -0.9375q0.53125 -0.359375 1.1875 -0.546875q0.46875 -0.125 1.453125 -0.25q1.984375 -0.234375 2.921875 -0.5625q0.015625 -0.34375 0.015625 -0.421875q0 -1.0 -0.46875 -1.421875q-0.625 -0.546875 -1.875 -0.546875q-1.15625 0 -1.703125 0.40625q-0.546875 0.40625 -0.8125 1.421875l-1.609375 -0.21875q0.21875 -1.015625 0.71875 -1.640625q0.5 -0.640625 1.453125 -0.984375q0.953125 -0.34375 2.1875 -0.34375q1.25 0 2.015625 0.296875q0.78125 0.28125 1.140625 0.734375q0.375 0.4375 0.515625 1.109375q0.078125 0.421875 0.078125 1.515625l0 2.1875q0 2.28125 0.109375 2.890625q0.109375 0.59375 0.40625 1.15625l-1.703125 0q-0.265625 -0.515625 -0.328125 -1.1875zm-0.140625 -3.671875q-0.890625 0.375 -2.671875 0.625q-1.015625 0.140625 -1.4375 0.328125q-0.421875 0.1875 -0.65625 0.53125q-0.21875 0.34375 -0.21875 0.78125q0 0.65625 0.5 1.09375q0.5 0.4375 1.453125 0.4375q0.9375 0 1.671875 -0.40625q0.75 -0.421875 1.09375 -1.140625q0.265625 -0.5625 0.265625 -1.640625l0 -0.609375zm4.156952 4.859375l0 -13.359375l1.640625 0l0 13.359375l-1.640625 0zm4.1448364 0l0 -13.359375l1.640625 0l0 13.359375l-1.640625 0zm3.5823364 -4.84375q0 -2.6875 1.484375 -3.96875q1.25 -1.078125 3.046875 -1.078125q2.0 0 3.265625 1.3125q1.265625 1.296875 1.265625 3.609375q0 1.859375 -0.5625 2.9375q-0.5625 1.0625 -1.640625 1.65625q-1.0625 0.59375 -2.328125 0.59375q-2.03125 0 -3.28125 -1.296875q-1.25 -1.3125 -1.25 -3.765625zm1.6875 0q0 1.859375 0.796875 2.796875q0.8125 0.921875 2.046875 0.921875q1.21875 0 2.03125 -0.921875q0.8125 -0.9375 0.8125 -2.84375q0 -1.796875 -0.8125 -2.71875q-0.8125 -0.921875 -2.03125 -0.921875q-1.234375 0 -2.046875 0.921875q-0.796875 0.90625 -0.796875 2.765625zm15.610077 1.296875l1.609375 0.21875q-0.265625 1.65625 -1.359375 2.609375q-1.078125 0.9375 -2.671875 0.9375q-1.984375 0 -3.1875 -1.296875q-1.203125 -1.296875 -1.203125 -3.71875q0 -1.578125 0.515625 -2.75q0.515625 -1.171875 1.578125 -1.75q1.0625 -0.59375 2.3125 -0.59375q1.578125 0 2.578125 0.796875q1.0 0.796875 1.28125 2.265625l-1.59375 0.234375q-0.234375 -0.96875 -0.8125 -1.453125q-0.578125 -0.5 -1.390625 -0.5q-1.234375 0 -2.015625 0.890625q-0.78125 0.890625 -0.78125 2.8125q0 1.953125 0.75 2.84375q0.75 0.875 1.953125 0.875q0.96875 0 1.609375 -0.59375q0.65625 -0.59375 0.828125 -1.828125z" fill-rule="nonzero"/></g></svg>